<svg width="157" height="31" viewBox="0 0 157 31" fill="none" xmlns="http://www.w3.org/2000/svg">
<g clip-path="url(#clip0_1_3516)">
<path d="M148.377 16.1836C148.223 16.1836 148.07 16.1877 147.918 16.1949C147.893 16.1955 147.869 16.1983 147.843 16.1983C146.766 16.1983 145.891 15.4272 145.891 14.4756C145.891 13.524 146.766 12.7536 147.843 12.7536C148.921 12.7536 149.72 13.5059 149.796 14.4735C149.859 15.2753 153.536 12.5396 152.848 11.7061C151.597 10.1908 149.957 9.2157 147.844 9.2157C144.583 9.2157 141.94 11.5822 141.94 14.5008C141.94 17.4194 144.583 19.7852 147.844 19.7852C147.944 19.7852 148.041 19.7767 148.139 19.7719C148.139 19.7719 148.288 19.7825 148.377 19.7825C150.738 19.7825 152.652 21.4878 152.652 23.5916C152.652 25.6954 150.738 27.4007 148.377 27.4007C146.016 27.4007 144.101 25.6954 144.101 23.5916C144.101 23.3712 144.127 23.1573 144.167 22.9471C144.167 22.9471 140.096 22.0661 140.096 22.9471C140.046 23.247 140.062 23.3743 140.062 23.5916C140.062 27.6832 143.785 31 148.376 31C152.968 31 156.691 27.6832 156.691 23.5916C156.691 19.5 152.968 16.1836 148.377 16.1836Z" fill="#114E8C"/>
<path d="M138.489 23.2389C138.489 19.7389 138.489 16.3089 138.489 16.3089C138.556 14.6384 138.516 12.1139 138.489 10.965V10.0581C138.472 10.0575 138.454 10.0588 138.437 10.0527C137.522 9.74357 134.445 9.57945 134.445 9.57945C134.284 9.57024 134.285 14.7701 134.445 14.7847V23.8803C134.279 25.849 132.438 27.4008 130.186 27.4008C128.039 27.4008 126.266 25.9886 125.962 24.1502C125.962 21.2739 125.962 14.6626 125.962 14.6626C126.03 13.4005 125.99 11.4932 125.962 10.6256V9.94044C125.944 9.93975 125.926 9.94112 125.91 9.93634C124.986 9.70296 121.883 9.57911 121.883 9.57911C121.721 9.57195 121.722 13.4994 121.883 13.5107V23.3914C121.88 23.4579 121.872 23.5241 121.872 23.5913C121.872 23.7131 121.876 23.8346 121.883 23.9557V24.0124C121.883 24.0124 121.885 24.0144 121.887 24.0144C122.133 27.9095 125.754 30.9997 130.186 30.9997C131.743 30.9997 133.199 30.6179 134.445 29.9543V30.4835C134.445 30.4835 138.489 31.2993 138.489 30.4835C138.489 29.8577 138.489 26.9777 138.489 23.9748C138.497 23.8482 138.501 23.7203 138.501 23.5917C138.501 23.4736 138.496 23.3556 138.489 23.2389Z" fill="#114E8C"/>
<path d="M91.4473 28.7014V30.6012C91.4473 30.6012 95.4097 31.2177 95.4097 30.6012C95.4097 30.3405 95.4097 29.6271 95.4097 28.7014H91.4473Z" fill="#114E8C"/>
<path d="M97.379 17.2846C96.6916 17.2846 96.0305 17.1761 95.4091 16.9782V9.12219H91.4467V12.0189H91.4566V15.0689C90.4938 14.7731 89.474 14.609 88.4152 14.609C87.5157 14.609 86.6434 14.7229 85.8115 14.9382V19.052C86.6089 18.7023 87.4883 18.5044 88.4152 18.5044C89.5157 18.5044 90.5492 18.7828 91.4566 19.2666V24.6643H91.4467V26.9207H95.4091C95.4091 24.201 95.4091 21.0142 95.4091 21.0142C96.0476 21.1367 96.7043 21.208 97.379 21.208C98.6671 21.208 99.8994 20.9733 101.038 20.5468V16.1553C99.9961 16.8673 98.7371 17.2846 97.379 17.2846Z" fill="#114E8C"/>
<path d="M97.3793 0.395386C95.1781 0.395386 93.1381 1.07914 91.4558 2.24262H91.4473V2.24808V7.10568H95.4097V4.62655C96.0308 4.42866 96.6922 4.31947 97.3796 4.31947C100.965 4.31947 103.871 7.22237 103.871 10.8022C103.871 12.1888 103.426 13.4673 102.682 14.5199H102.717V19.7378C105.761 17.9212 107.8 14.6004 107.8 10.8022C107.8 5.05475 103.135 0.395386 97.3793 0.395386Z" fill="#114E8C"/>
<path d="M74.0388 11.3905H70.3896V30.8134H74.0388V11.3905Z" fill="#114E8C"/>
<path d="M74.0388 5.95081H70.3896V9.42861H74.0388V5.95081Z" fill="#114E8C"/>
<path d="M37.9207 11.457H32.9453V15.101H37.9207V11.457Z" fill="#114E8C"/>
<path d="M25.7809 19.2632H20.9165V22.9078H25.7809V19.2632Z" fill="#114E8C"/>
<path d="M37.3671 0.000341196H37.3203V0.00136478C32.0514 0.0266133 27.786 4.28235 27.7518 9.54085L27.7515 30.813H31.3996V9.54085C31.4337 6.29233 34.0689 3.66751 37.3241 3.64363H41.4051V0H37.3671V0.000341196Z" fill="#114E8C"/>
<path d="M85.5748 27.1687C82.3185 27.1469 79.6831 24.5211 79.6499 21.2719H79.6506V0.000366211H76.0015V21.2719H76.0021C76.0356 26.5317 80.3018 30.7868 85.57 30.8127V30.8134H85.6168H87.558V27.1687H85.5748Z" fill="#114E8C"/>
<path d="M118.815 27.1687C115.559 27.1469 112.923 24.5211 112.89 21.2719H112.89V0.000366211H109.242V21.2719H109.242C109.276 26.5317 113.542 30.7868 118.81 30.8127V30.8134H118.857H120.798V27.1687H118.815Z" fill="#114E8C"/>
<path d="M7.49165 22.9536H18.7848C18.9071 22.3418 18.9724 21.7089 18.9724 21.0603C18.9724 15.8305 14.7841 11.5795 9.57434 11.4628V11.4567H9.56921V11.4573C9.5412 11.4573 9.51386 11.4601 9.48585 11.4601C9.45817 11.4601 9.4305 11.4573 9.40249 11.4573V11.4567H9.36354V11.4635C4.16981 11.5983 0 15.8417 0 21.0603C0 26.3434 4.27128 30.6284 9.55315 30.6632V30.6646H9.6167H13.9584V27.0206H9.57639C6.9621 27.0032 4.74788 25.3075 3.95867 22.9577H7.49233V22.9536H7.49165ZM3.90777 19.3144C4.64368 16.9141 6.8555 15.1614 9.48585 15.1047C12.1162 15.1614 14.3277 16.9141 15.0636 19.3144H7.49165H6.76189H3.90777Z" fill="#114E8C"/>
<path d="M47.1123 10.6628C49.0976 10.6628 50.9955 11.0753 52.7204 11.8184V8.31567L46.0337 10.7081C46.39 10.6812 46.7484 10.6628 47.1123 10.6628Z" fill="#114E8C"/>
<path d="M57.2842 19.9974C57.7844 17.2266 60.2001 15.1214 63.1141 15.1006H68.4236V11.4566H63.1568H63.1093V11.4573C59.9685 11.4727 57.1834 12.9913 55.4386 15.3299C53.6709 12.9535 50.8407 11.413 47.6484 11.413C42.2903 11.413 37.9473 15.7506 37.9473 21.1012C37.9473 26.4525 42.2903 30.7898 47.6484 30.7898C49.8762 30.7898 51.9275 30.0381 53.565 28.7774V30.6646H57.3289V29.8488C55.2042 28.4366 53.6156 26.2789 52.9446 23.7567C51.9702 25.6913 49.9651 27.0196 47.6484 27.0196C44.3757 27.0196 41.7228 24.3699 41.7228 21.1012C41.7228 17.8332 44.3757 15.1835 47.6484 15.1835C50.7515 15.1835 53.2951 17.5657 53.551 20.5979C53.5438 20.7511 53.5394 20.9057 53.5394 21.0603C53.5394 26.3433 57.8107 30.6284 63.0925 30.6632V30.6646H63.1568H68.4236V27.0206H63.1168C59.8383 26.9991 57.1878 24.3398 57.1878 21.0603C57.1878 20.7017 57.2213 20.3519 57.2818 20.0107C57.2828 20.0067 57.2838 20.0022 57.2842 19.9974Z" fill="#114E8C"/>
</g>
<defs>
<clipPath id="clip0_1_3516">
<rect width="156.691" height="31" fill="white"/>
</clipPath>
</defs>
</svg>
