<svg width="81" height="16" viewBox="0 0 81 16" fill="none" xmlns="http://www.w3.org/2000/svg">
<g clip-path="url(#clip0_1_2798)">
<path d="M76.4802 8.3528C76.4007 8.3528 76.322 8.35492 76.2435 8.35861C76.2308 8.35897 76.2183 8.36037 76.2053 8.36037C75.6498 8.36037 75.1989 7.96239 75.1989 7.47124C75.1989 6.9801 75.6498 6.58246 76.2053 6.58246C76.7607 6.58246 77.1724 6.97076 77.2117 7.47018C77.2441 7.88402 79.1395 6.47204 78.785 6.04183C78.1401 5.25977 77.2946 4.75647 76.2054 4.75647C74.5249 4.75647 73.1626 5.97791 73.1626 7.48427C73.1626 8.99064 74.5249 10.2117 76.2054 10.2117C76.257 10.2117 76.3069 10.2073 76.3578 10.2049C76.3578 10.2049 76.4342 10.2103 76.4802 10.2103C77.697 10.2103 78.6839 11.0905 78.6839 12.1763C78.6839 13.2621 77.697 14.1423 76.4802 14.1423C75.2633 14.1423 74.2764 13.2621 74.2764 12.1763C74.2764 12.0625 74.2898 11.9521 74.3104 11.8437C74.3104 11.8437 72.2117 11.389 72.2117 11.8437C72.1861 11.9984 72.1944 12.0641 72.1944 12.1763C72.1944 14.2881 74.1132 16 76.48 16C78.8468 16 80.7656 14.2881 80.7656 12.1763C80.7656 10.0645 78.8468 8.3528 76.4802 8.3528Z" fill="white"/>
<path d="M71.3835 11.9942C71.3835 10.1878 71.3835 8.41745 71.3835 8.41745C71.4182 7.55526 71.3976 6.25229 71.3835 5.65936V5.19128C71.3746 5.19093 71.3652 5.19163 71.3568 5.18846C70.8848 5.02892 69.2989 4.94421 69.2989 4.94421C69.2163 4.93946 69.2166 7.62323 69.2989 7.63081V12.3253C69.2136 13.3414 68.2646 14.1423 67.1038 14.1423C65.997 14.1423 65.083 13.4134 64.9266 12.4646C64.9266 10.9801 64.9266 7.56776 64.9266 7.56776C64.9613 6.91637 64.9407 5.93196 64.9266 5.48414V5.13053C64.9173 5.13017 64.9081 5.13088 64.8995 5.12841C64.4235 5.00796 62.8238 4.94404 62.8238 4.94404C62.7405 4.94034 62.7409 6.96744 62.8238 6.97325V12.073C62.8224 12.1073 62.8184 12.1415 62.8184 12.1761C62.8184 12.239 62.8205 12.3017 62.8238 12.3642V12.3935C62.8238 12.3935 62.8252 12.3945 62.8259 12.3945C62.9529 14.4049 64.8194 15.9998 67.1039 15.9998C67.9064 15.9998 68.6568 15.8028 69.299 15.4603V15.7334C69.299 15.7334 71.3837 16.1544 71.3837 15.7334C71.3837 15.4104 71.3837 13.9239 71.3837 12.3741C71.3874 12.3088 71.3895 12.2427 71.3895 12.1763C71.3895 12.1154 71.3871 12.0545 71.3835 11.9942Z" fill="white"/>
<path d="M47.136 14.8136V15.7941C47.136 15.7941 49.1784 16.1123 49.1784 15.7941C49.1784 15.6596 49.1784 15.2914 49.1784 14.8136H47.136Z" fill="white"/>
<path d="M50.1936 8.92111C49.8393 8.92111 49.4986 8.86511 49.1782 8.76298V4.70825H47.1358V6.20335H47.1409V7.77751C46.6447 7.62484 46.119 7.54013 45.5733 7.54013C45.1096 7.54013 44.66 7.59895 44.2312 7.71007V9.83332C44.6422 9.65281 45.0955 9.55067 45.5733 9.55067C46.1405 9.55067 46.6732 9.69437 47.1409 9.94408V12.73H47.1358V13.8946H49.1782C49.1782 12.4909 49.1782 10.8461 49.1782 10.8461C49.5074 10.9093 49.8458 10.9461 50.1936 10.9461C50.8575 10.9461 51.4927 10.8249 52.0795 10.6048V8.33822C51.5426 8.70574 50.8936 8.92111 50.1936 8.92111Z" fill="white"/>
<path d="M50.1936 0.204102C49.059 0.204102 48.0075 0.557008 47.1404 1.15751H47.136V1.16033V3.66748H49.1784V2.38793C49.4986 2.28579 49.8395 2.22944 50.1938 2.22944C52.0418 2.22944 53.5397 3.7277 53.5397 5.57536C53.5397 6.29103 53.3106 6.95088 52.9271 7.49415H52.945V10.1873C54.5137 9.2497 55.5649 7.53571 55.5649 5.57536C55.5647 2.60894 53.1602 0.204102 50.1936 0.204102Z" fill="white"/>
<path d="M38.1629 5.87897H36.282V15.9037H38.1629V5.87897Z" fill="white"/>
<path d="M38.1629 3.07135H36.282V4.86635H38.1629V3.07135Z" fill="white"/>
<path d="M19.546 5.91327H16.9814V7.79403H19.546V5.91327Z" fill="white"/>
<path d="M13.2886 9.94232H10.7812V11.8234H13.2886V9.94232Z" fill="white"/>
<path d="M19.2608 0.000176101H19.2367V0.000704404C16.5208 0.0137359 14.3222 2.21024 14.3046 4.92431L14.3044 15.9035H16.1848V4.92431C16.2025 3.24765 17.5607 1.89291 19.2386 1.88058H21.3421V0H19.2608V0.000176101Z" fill="white"/>
<path d="M44.1091 14.0226C42.4307 14.0113 41.0722 12.656 41.0551 10.979H41.0555V0.000183105H39.1746V10.979H39.1749C39.1922 13.6938 41.3911 15.8899 44.1066 15.9033V15.9037H44.1307H45.1314V14.0226H44.1091Z" fill="white"/>
<path d="M61.2427 14.0226C59.5646 14.0113 58.206 12.656 58.1888 10.979H58.1891V0.000183105H56.3083V10.979H56.3087C56.326 13.6938 58.5251 15.8899 61.2402 15.9033V15.9037H61.2647H62.265V14.0226H61.2427Z" fill="white"/>
<path d="M3.86154 11.847H9.68256C9.7456 11.5312 9.77923 11.2046 9.77923 10.8698C9.77923 8.17052 7.62041 5.97648 4.93505 5.91626V5.91309H4.93241V5.91344C4.91797 5.91344 4.90388 5.91485 4.88944 5.91485C4.87518 5.91485 4.86091 5.91344 4.84647 5.91344V5.91309H4.8264V5.91661C2.14931 5.98617 0 8.17633 0 10.8698C0 13.5965 2.20161 15.8082 4.92413 15.8262V15.8269H4.95689H7.19478V13.9461H4.93611C3.58858 13.9371 2.44727 13.0619 2.04048 11.8491H3.86189V11.847H3.86154ZM2.01424 9.96869C2.39356 8.72982 3.53364 7.82519 4.88944 7.79596C6.24524 7.82519 7.38514 8.72982 7.76446 9.96869H3.86154H3.48539H2.01424Z" fill="white"/>
<path d="M24.2837 5.50333C25.3071 5.50333 26.2853 5.71623 27.1744 6.09978V4.29193L23.7278 5.52675C23.9115 5.51284 24.0962 5.50333 24.2837 5.50333Z" fill="white"/>
<path d="M29.5269 10.3213C29.7848 8.89115 31.03 7.80461 32.5319 7.79386H35.2687V5.91311H32.5539H32.5295V5.91346C30.9106 5.92138 29.475 6.70521 28.5757 7.9122C27.6645 6.68566 26.2057 5.89056 24.5602 5.89056C21.7984 5.89056 19.5598 8.12933 19.5598 10.8909C19.5598 13.6529 21.7984 15.8915 24.5602 15.8915C25.7086 15.8915 26.7659 15.5036 27.6099 14.8529V15.8269H29.55V15.4058C28.4548 14.6769 27.636 13.5633 27.2901 12.2615C26.7879 13.26 25.7543 13.9456 24.5602 13.9456C22.8733 13.9456 21.5059 12.578 21.5059 10.8909C21.5059 9.20425 22.8733 7.83666 24.5602 7.83666C26.1597 7.83666 27.4708 9.06619 27.6027 10.6312C27.599 10.7103 27.5967 10.79 27.5967 10.8698C27.5967 13.5966 29.7983 15.8082 32.5208 15.8262V15.8269H32.5539H35.2687V13.9461H32.5333C30.8435 13.935 29.4773 12.5625 29.4773 10.8698C29.4773 10.6847 29.4945 10.5042 29.5257 10.3281C29.5262 10.326 29.5268 10.3237 29.5269 10.3213Z" fill="white"/>
</g>
<defs>
<clipPath id="clip0_1_2798">
<rect width="80.7657" height="16" fill="white"/>
</clipPath>
</defs>
</svg>
