<svg width="18" height="26" viewBox="0 0 18 26" fill="none" xmlns="http://www.w3.org/2000/svg">
<circle cx="9" cy="13" r="9" fill="#114E8C"/>
<path d="M12.8472 13.3689C12.945 13.2711 13 13.1384 13 13C13 12.8616 12.945 12.7289 12.8472 12.6311C12.7493 12.5332 12.6166 12.4783 12.4783 12.4783H9.52174V9.52174C9.52174 9.38337 9.46677 9.25066 9.36893 9.15281C9.27108 9.05497 9.13837 9 9 9C8.86163 9 8.72892 9.05497 8.63107 9.15281C8.53323 9.25066 8.47826 9.38337 8.47826 9.52174V12.4783H5.52174C5.38337 12.4783 5.25066 12.5332 5.15281 12.6311C5.05497 12.7289 5 12.8616 5 13C5 13.1384 5.05497 13.2711 5.15281 13.3689C5.25066 13.4668 5.38337 13.5217 5.52174 13.5217H8.47826V16.4783C8.47826 16.6166 8.53323 16.7493 8.63107 16.8472C8.72892 16.945 8.86163 17 9 17C9.13837 17 9.27108 16.945 9.36893 16.8472C9.46677 16.7493 9.52174 16.6166 9.52174 16.4783V13.5217H12.4783C12.6166 13.5217 12.7493 13.4668 12.8472 13.3689Z" fill="white"/>
</svg>
