<svg width="20" height="20" viewBox="0 0 20 20" fill="none" xmlns="http://www.w3.org/2000/svg">
<path d="M3.54696 13.8281C2.61641 12.2581 2.29091 10.4025 2.63158 8.60949C2.97225 6.81652 3.95566 5.20954 5.39718 4.09025C6.83871 2.97096 8.63922 2.41633 10.4607 2.53049C12.2822 2.64464 13.9994 3.41972 15.2899 4.71023C16.5804 6.00073 17.3554 7.71791 17.4696 9.53939C17.5838 11.3609 17.0291 13.1614 15.9098 14.6029C14.7905 16.0444 13.1836 17.0278 11.3906 17.3685C9.59762 17.7092 7.74196 17.3837 6.17196 16.4531V16.4531L3.57821 17.1875C3.47195 17.2186 3.35927 17.2205 3.25201 17.1931C3.14474 17.1656 3.04683 17.1098 2.96854 17.0315C2.89025 16.9533 2.83446 16.8553 2.80703 16.7481C2.77959 16.6408 2.78151 16.5281 2.81259 16.4219L3.54696 13.8281Z" stroke="white" stroke-linecap="round" stroke-linejoin="round"/>
<path d="M11.8828 14.375C11.0605 14.3771 10.2458 14.2166 9.48563 13.9029C8.72547 13.5891 8.0348 13.1282 7.45329 12.5467C6.87179 11.9652 6.41092 11.2746 6.09717 10.5144C5.78341 9.75424 5.62296 8.93957 5.62502 8.1172C5.62709 7.5384 5.85847 6.984 6.26848 6.57546C6.67849 6.16691 7.23371 5.93751 7.81252 5.93752V5.93752C7.90802 5.93675 8.00195 5.96175 8.08444 6.00987C8.16693 6.05799 8.23493 6.12745 8.28127 6.21095L9.19533 7.8047C9.24969 7.90159 9.27759 8.01107 9.27621 8.12216C9.27484 8.23324 9.24425 8.342 9.18752 8.43752L8.45314 9.66408C8.8293 10.5009 9.49917 11.1707 10.336 11.5469L11.5625 10.8125C11.658 10.7558 11.7668 10.7252 11.8779 10.7238C11.989 10.7225 12.0984 10.7503 12.1953 10.8047L13.7891 11.7188C13.8726 11.7651 13.942 11.8331 13.9902 11.9156C14.0383 11.9981 14.0633 12.092 14.0625 12.1875C14.0605 12.7657 13.8304 13.3197 13.4223 13.7293C13.0142 14.1389 12.461 14.3709 11.8828 14.375V14.375Z" stroke="white" stroke-linecap="round" stroke-linejoin="round"/>
</svg>
