<svg width="5" height="10" viewBox="0 0 5 10" fill="none" xmlns="http://www.w3.org/2000/svg">
<path d="M0.71161 0.538995L4.87781 4.7052C4.91655 4.74389 4.94728 4.78984 4.96824 4.84041C4.98921 4.89099 5 4.9452 5 4.99995C5 5.05471 4.98921 5.10892 4.96824 5.1595C4.94728 5.21007 4.91655 5.25602 4.87781 5.29471L0.711611 9.46091C0.633436 9.53909 0.527408 9.58301 0.416852 9.58301C0.306296 9.58301 0.200268 9.53909 0.122093 9.46091C0.0439179 9.38274 -1.33886e-08 9.27671 -1.82212e-08 9.16616C-2.30537e-08 9.0556 0.0439179 8.94957 0.122093 8.8714L3.99406 4.99995L0.122092 1.12851C0.0833842 1.0898 0.0526791 1.04385 0.0317304 0.993276C0.0107816 0.942701 -3.80049e-07 0.888495 -3.82442e-07 0.833754C-3.84835e-07 0.779012 0.0107816 0.724806 0.0317304 0.674231C0.0526791 0.623656 0.0833842 0.577703 0.122092 0.538995C0.160801 0.500286 0.206754 0.469582 0.257329 0.448633C0.307904 0.427684 0.36211 0.416901 0.416851 0.416901C0.471593 0.416901 0.525799 0.427684 0.576374 0.448633C0.626948 0.469582 0.672902 0.500286 0.71161 0.538995Z" fill="white"/>
</svg>
