<?xml version="1.0" standalone="no"?>
<!DOCTYPE svg PUBLIC "-//W3C//DTD SVG 20010904//EN"
 "http://www.w3.org/TR/2001/REC-SVG-20010904/DTD/svg10.dtd">
<svg version="1.0" xmlns="http://www.w3.org/2000/svg"
 width="700.000000pt" height="700.000000pt" viewBox="0 0 700.000000 700.000000"
 preserveAspectRatio="xMidYMid meet">
<metadata>
Created by potrace 1.14, written by Peter Selinger 2001-2017
</metadata>
<g transform="translate(0.000000,700.000000) scale(0.100000,-0.100000)"
fill="#000000" stroke="none">
<path d="M3337 5903 c-1 -1 -38 -4 -82 -8 -266 -20 -621 -103 -830 -195 -22
-10 -51 -21 -65 -25 -39 -12 -268 -128 -345 -175 -70 -43 -246 -160 -255 -170
-3 -3 -48 -39 -100 -80 -112 -87 -309 -282 -398 -395 -35 -44 -71 -89 -81
-100 -36 -43 -151 -215 -205 -308 -48 -82 -88 -161 -146 -292 -109 -243 -183
-517 -225 -835 -18 -135 -23 -355 -11 -515 12 -179 15 -204 25 -263 6 -32 13
-73 16 -92 11 -66 55 -245 86 -345 62 -200 175 -453 293 -653 40 -67 263 -367
254 -342 -3 9 -45 79 -92 155 -48 77 -110 187 -138 244 -139 288 -251 665
-283 956 -3 28 -10 84 -14 125 -10 78 -7 515 3 585 4 22 11 74 17 115 55 402
219 832 447 1175 162 242 430 534 632 688 358 272 831 478 1219 533 l46 6 -92
-58 c-370 -233 -689 -556 -934 -947 -64 -102 -177 -318 -206 -392 -37 -98 -74
-202 -103 -287 -17 -54 -37 -98 -44 -98 -35 0 -140 36 -217 74 -94 47 -178
101 -247 160 -61 50 -71 45 -25 -13 69 -88 240 -204 393 -268 64 -26 94 -49
85 -64 -5 -7 -18 -72 -31 -144 -2 -16 -9 -55 -14 -85 -5 -30 -12 -93 -16 -140
-4 -47 -8 -94 -9 -105 -1 -11 -3 -71 -4 -134 l-1 -113 -27 6 c-52 13 -248 117
-327 174 -128 93 -146 104 -139 86 9 -23 187 -170 278 -229 44 -29 110 -66
148 -84 37 -18 67 -38 68 -44 0 -7 2 -32 4 -56 2 -40 9 -108 20 -231 3 -25 7
-63 10 -85 3 -22 8 -60 11 -85 3 -25 7 -51 10 -59 3 -8 7 -30 10 -50 3 -20 12
-62 19 -95 l14 -58 -25 5 c-31 6 -30 1 2 -16 22 -11 35 -37 70 -136 64 -182
183 -396 316 -568 154 -201 221 -284 225 -279 3 2 -17 37 -44 78 -90 134 -234
403 -283 528 -35 88 -100 284 -98 291 2 4 35 -2 73 -12 39 -10 81 -20 95 -23
14 -3 63 -14 110 -25 164 -37 277 -49 465 -48 150 0 196 3 335 22 30 4 64 8
74 7 18 -1 35 -18 36 -33 0 -7 -85 -24 -173 -35 -23 -3 -64 -9 -92 -13 -27 -4
-94 -7 -147 -6 -54 0 -98 -3 -98 -6 0 -18 288 -20 445 -4 39 4 77 8 86 9 10 1
45 -38 88 -95 39 -53 78 -100 87 -103 18 -7 19 -9 -58 108 -33 49 -56 92 -51
96 4 3 68 21 141 39 262 63 525 186 729 339 71 53 93 59 91 24 -1 -9 2 -39 5
-67 6 -49 14 -129 22 -228 2 -27 6 -52 10 -55 3 -3 31 12 63 35 63 44 62 42
87 198 9 55 18 107 20 115 1 8 9 55 15 103 11 72 17 90 34 99 67 34 230 170
325 271 83 89 113 167 75 198 -9 7 -40 13 -69 13 -77 1 -172 -52 -360 -199
-153 -120 -159 -124 -199 -120 -91 10 -202 25 -226 30 -146 31 -218 36 -250
20 -35 -18 -66 -54 -54 -64 5 -4 89 -41 186 -82 98 -41 178 -77 178 -80 0 -6
-156 -126 -186 -142 -6 -4 -24 -3 -40 2 -25 7 -42 1 -119 -47 -188 -115 -347
-188 -503 -231 l-73 -20 -24 52 c-50 110 -75 168 -75 175 0 5 -11 32 -25 61
-36 74 -123 338 -127 385 l-3 40 135 23 c251 43 512 130 725 242 150 79 224
131 429 305 61 51 167 158 210 210 17 21 46 56 63 78 59 72 139 201 198 318
55 110 89 190 82 196 -3 3 -73 -112 -123 -201 -62 -113 -211 -297 -319 -395
-278 -254 -517 -403 -800 -498 -174 -59 -522 -150 -590 -154 -38 -3 -40 -1
-52 35 -7 21 -15 66 -19 100 -3 34 -7 73 -10 87 -8 45 -17 457 -11 482 6 24
13 26 99 37 121 15 331 62 453 101 569 183 1015 556 1278 1071 117 230 125
260 22 87 -90 -152 -251 -364 -355 -468 -84 -85 -283 -244 -391 -313 -175
-112 -481 -237 -739 -302 -93 -23 -310 -65 -338 -65 -11 0 -13 12 -8 61 6 51
24 157 40 234 41 192 46 209 108 385 143 405 357 750 660 1063 114 117 115
117 161 117 26 0 105 -9 175 -20 483 -77 928 -273 1317 -579 93 -73 131 -108
245 -221 272 -271 477 -567 625 -905 27 -62 73 -182 85 -220 6 -22 14 -47 17
-55 25 -63 96 -363 108 -450 2 -14 6 -45 10 -70 13 -82 14 -94 22 -215 11
-186 6 -442 -12 -536 -2 -8 -6 -40 -9 -70 -7 -63 -12 -95 -28 -165 -16 -76 -4
-87 25 -24 38 86 66 214 91 420 16 135 11 490 -9 620 -2 14 -6 55 -10 92 -3
37 -7 75 -9 85 -2 10 -7 43 -11 73 -24 190 -109 470 -220 730 -139 325 -325
594 -594 859 -357 350 -758 589 -1216 725 -123 36 -311 79 -400 91 -27 4 -61
8 -75 10 -90 12 -515 27 -523 18z m-94 -405 c-214 -269 -359 -537 -468 -863
-33 -101 -87 -300 -99 -368 -3 -15 -10 -53 -15 -85 -16 -88 -19 -112 -26 -177
-15 -153 -15 -156 -44 -166 -44 -17 -460 -12 -491 6 -3 1 -43 6 -90 10 -46 3
-87 8 -91 11 -33 20 196 532 335 752 56 88 163 228 216 283 8 9 44 49 80 89
36 41 91 99 124 129 32 31 68 65 80 76 30 30 199 163 282 223 81 59 255 164
262 158 2 -2 -23 -38 -55 -78z m-1258 -1742 c143 -34 247 -43 476 -45 l147 -1
1 -102 c2 -101 4 -137 16 -248 6 -64 9 -79 37 -225 28 -151 28 -157 -2 -162
-42 -8 -511 -8 -575 -1 -52 6 -92 13 -191 32 -11 2 -40 10 -64 17 l-43 13 6
135 c5 116 18 248 31 326 2 11 7 38 11 60 3 22 15 79 27 128 23 99 20 97 123
73z m-70 -847 c221 -57 394 -72 709 -58 l98 4 35 -95 c89 -243 137 -353 225
-513 26 -48 48 -91 48 -96 0 -5 -19 -12 -42 -16 -24 -4 -52 -9 -63 -11 -101
-19 -461 -26 -580 -12 -133 16 -266 44 -397 82 -63 19 -62 16 -87 146 -6 30
-14 66 -16 80 -8 39 -26 163 -41 285 -2 17 -6 76 -10 133 l-7 103 29 -7 c16
-3 61 -15 99 -25z m1792 -615 c4 -11 -144 -93 -236 -131 -85 -36 -200 -73
-269 -87 -58 -13 -63 -12 -72 5 -6 10 -10 20 -10 22 0 4 58 20 150 42 61 15
197 70 320 129 73 36 110 42 117 20z"/>
</g>
</svg>
