<svg width="18" height="19" viewBox="0 0 18 19" fill="none" xmlns="http://www.w3.org/2000/svg">
<g opacity="0.5">
<path d="M16.1479 15.8521L12.6273 12.3322C13.6477 11.1072 14.1566 9.53589 14.048 7.94524C13.9394 6.35459 13.2217 4.86705 12.0443 3.79205C10.8668 2.71705 9.32029 2.13737 7.72635 2.1736C6.13241 2.20982 4.6138 2.85916 3.48642 3.98654C2.35904 5.11392 1.7097 6.63253 1.67348 8.22647C1.63725 9.82041 2.21693 11.367 3.29193 12.5444C4.36692 13.7218 5.85447 14.4395 7.44512 14.5481C9.03577 14.6567 10.6071 14.1479 11.8321 13.1275L15.3519 16.648C15.4042 16.7003 15.4663 16.7417 15.5345 16.77C15.6028 16.7983 15.676 16.8129 15.7499 16.8129C15.8238 16.8129 15.897 16.7983 15.9653 16.77C16.0336 16.7417 16.0956 16.7003 16.1479 16.648C16.2001 16.5957 16.2416 16.5337 16.2699 16.4654C16.2982 16.3971 16.3127 16.3239 16.3127 16.25C16.3127 16.1761 16.2982 16.1029 16.2699 16.0347C16.2416 15.9664 16.2001 15.9043 16.1479 15.8521ZM2.81242 8.37504C2.81242 7.37377 3.10933 6.39499 3.6656 5.56246C4.22188 4.72994 5.01253 4.08107 5.93758 3.6979C6.86263 3.31473 7.88053 3.21448 8.86256 3.40981C9.84459 3.60515 10.7466 4.08731 11.4546 4.79531C12.1626 5.50331 12.6448 6.40536 12.8401 7.38739C13.0355 8.36942 12.9352 9.38732 12.5521 10.3124C12.1689 11.2374 11.52 12.0281 10.6875 12.5844C9.85497 13.1406 8.87618 13.4375 7.87492 13.4375C6.53271 13.436 5.24591 12.9022 4.29683 11.9531C3.34775 11.004 2.8139 9.71724 2.81242 8.37504Z" fill="#666666"/>
</g>
</svg>
