<svg width="25" height="25" viewBox="0 0 25 25" fill="none" xmlns="http://www.w3.org/2000/svg">
<path d="M7.8125 5H17.1875C19.0523 5 20.8407 5.74079 22.1593 7.05941C23.478 8.37802 24.2188 10.1664 24.2188 12.0312C24.2188 13.8961 23.478 15.6845 22.1593 17.0031C20.8407 18.3217 19.0523 19.0625 17.1875 19.0625H7.8125C5.9477 19.0625 4.15927 18.3217 2.84066 17.0031C1.52204 15.6845 0.78125 13.8961 0.78125 12.0312C0.78125 10.1664 1.52204 8.37802 2.84066 7.05941C4.15927 5.74079 5.9477 5 7.8125 5Z" fill="#DADADA"/>
<path d="M6.53586 8.65832C7.17824 8.2291 7.93347 8 8.70606 8C9.74206 8 10.7356 8.41155 11.4682 9.14411C12.2008 9.87668 12.6123 10.8702 12.6123 11.9062C12.6123 12.6788 12.3832 13.4341 11.954 14.0764C11.5248 14.7188 10.9147 15.2195 10.2009 15.5152C9.48714 15.8108 8.70172 15.8882 7.94398 15.7374C7.18625 15.5867 6.49022 15.2147 5.94392 14.6684C5.39762 14.1221 5.02559 13.4261 4.87486 12.6683C4.72414 11.9106 4.8015 11.1252 5.09715 10.4114C5.39281 9.69762 5.89348 9.08755 6.53586 8.65832Z" fill="white"/>
</svg>
