<svg width="25" height="25" viewBox="0 0 25 25" fill="none" xmlns="http://www.w3.org/2000/svg">
<path d="M7.8125 5H17.1875C19.0523 5 20.8407 5.74079 22.1593 7.05941C23.478 8.37802 24.2188 10.1664 24.2188 12.0312C24.2188 13.8961 23.478 15.6845 22.1593 17.0031C20.8407 18.3217 19.0523 19.0625 17.1875 19.0625H7.8125C5.9477 19.0625 4.15927 18.3217 2.84066 17.0031C1.52204 15.6845 0.78125 13.8961 0.78125 12.0312C0.78125 10.1664 1.52204 8.37802 2.84066 7.05941C4.15927 5.74079 5.9477 5 7.8125 5Z" fill="#219653"/>
<path d="M14.7361 8.65832C15.3784 8.2291 16.1337 8 16.9063 8C17.9423 8 18.9358 8.41155 19.6684 9.14411C20.401 9.87668 20.8125 10.8702 20.8125 11.9062C20.8125 12.6788 20.5834 13.4341 20.1542 14.0764C19.725 14.7188 19.1149 15.2195 18.4011 15.5152C17.6873 15.8108 16.9019 15.8882 16.1442 15.7374C15.3864 15.5867 14.6904 15.2147 14.1441 14.6684C13.5978 14.1221 13.2258 13.4261 13.0751 12.6683C12.9243 11.9106 13.0017 11.1252 13.2973 10.4114C13.593 9.69762 14.0937 9.08755 14.7361 8.65832Z" fill="white"/>
</svg>
