<svg width="14" height="14" viewBox="0 0 14 14" fill="none" xmlns="http://www.w3.org/2000/svg">
<path d="M11.7 2.27329C11.0888 1.65591 10.3608 1.1664 9.55846 0.833326C8.75609 0.500248 7.89544 0.330265 7.0267 0.333292C3.3867 0.333292 0.420033 3.29996 0.420033 6.93996C0.420033 8.10662 0.726699 9.23996 1.30003 10.24L0.366699 13.6666L3.8667 12.7466C4.83337 13.2733 5.92003 13.5533 7.0267 13.5533C10.6667 13.5533 13.6334 10.5866 13.6334 6.94662C13.6334 5.17996 12.9467 3.51996 11.7 2.27329ZM7.0267 12.4333C6.04003 12.4333 5.07337 12.1666 4.2267 11.6666L4.0267 11.5466L1.9467 12.0933L2.50003 10.0666L2.3667 9.85996C1.81853 8.9846 1.52746 7.97279 1.5267 6.93996C1.5267 3.91329 3.99337 1.44663 7.02003 1.44663C8.4867 1.44663 9.8667 2.01996 10.9 3.05996C11.4117 3.56927 11.8172 4.17507 12.093 4.84224C12.3688 5.50942 12.5094 6.2247 12.5067 6.94662C12.52 9.97329 10.0534 12.4333 7.0267 12.4333ZM10.04 8.32662C9.87336 8.24662 9.06003 7.84663 8.91337 7.78662C8.76003 7.73329 8.65337 7.70662 8.54003 7.86662C8.4267 8.03329 8.11337 8.40662 8.02003 8.51329C7.9267 8.62663 7.8267 8.63996 7.66003 8.55329C7.49337 8.47329 6.96003 8.29329 6.33337 7.73329C5.84003 7.29329 5.51337 6.75329 5.41337 6.58663C5.32003 6.41996 5.40003 6.33329 5.4867 6.24662C5.56003 6.17329 5.65337 6.05329 5.73337 5.95996C5.81337 5.86662 5.8467 5.79329 5.90003 5.68662C5.95337 5.57329 5.9267 5.47996 5.8867 5.39996C5.8467 5.31996 5.51337 4.50663 5.38003 4.17329C5.2467 3.85329 5.1067 3.89329 5.0067 3.88663H4.6867C4.57337 3.88663 4.40003 3.92663 4.2467 4.09329C4.10003 4.25996 3.67337 4.65996 3.67337 5.47329C3.67337 6.28663 4.2667 7.07329 4.3467 7.17996C4.4267 7.29329 5.51337 8.95996 7.1667 9.67329C7.56003 9.84663 7.8667 9.94663 8.1067 10.02C8.50003 10.1466 8.86003 10.1266 9.1467 10.0866C9.4667 10.04 10.1267 9.68662 10.26 9.29996C10.4 8.91329 10.4 8.58663 10.3534 8.51329C10.3067 8.43996 10.2067 8.40662 10.04 8.32662Z" fill="white"/>
</svg>
