<svg width="20" height="20" viewBox="0 0 20 20" fill="none" xmlns="http://www.w3.org/2000/svg">
<path d="M17.9688 7.5C17.9689 7.45645 17.9631 7.41309 17.9516 7.37109L16.8313 3.44922C16.7652 3.22147 16.6272 3.02119 16.438 2.87828C16.2488 2.73536 16.0184 2.65748 15.7812 2.65625H4.21875C3.98175 2.65765 3.75155 2.73561 3.56247 2.87851C3.37339 3.02141 3.23556 3.2216 3.16953 3.44922L2.04922 7.37109C2.03745 7.41306 2.0314 7.45642 2.03125 7.5V8.75C2.03105 9.22417 2.14443 9.6915 2.36191 10.1129C2.57938 10.5342 2.89463 10.8974 3.28125 11.1719V16.25C3.28125 16.5401 3.39648 16.8183 3.6016 17.0234C3.80672 17.2285 4.08492 17.3438 4.375 17.3438H15.625C15.9151 17.3438 16.1933 17.2285 16.3984 17.0234C16.6035 16.8183 16.7188 16.5401 16.7188 16.25V11.1719C17.1054 10.8974 17.4206 10.5342 17.6381 10.1129C17.8556 9.6915 17.969 9.22417 17.9688 8.75V7.5ZM4.07109 3.70703C4.0803 3.67481 4.09963 3.64641 4.12622 3.62601C4.1528 3.60561 4.18524 3.5943 4.21875 3.59375H15.7812C15.8152 3.5938 15.8481 3.60488 15.8752 3.62531C15.9022 3.64575 15.9219 3.67443 15.9312 3.70703L16.8789 7.03125H3.125L4.07109 3.70703ZM7.96875 7.96875H12.0312V8.75C12.0312 9.28872 11.8172 9.80538 11.4363 10.1863C11.0554 10.5672 10.5387 10.7812 10 10.7812C9.46128 10.7812 8.94462 10.5672 8.56369 10.1863C8.18276 9.80538 7.96875 9.28872 7.96875 8.75V7.96875ZM2.96875 7.96875H7.03125V8.75C7.03125 9.28872 6.81724 9.80538 6.43631 10.1863C6.05538 10.5672 5.53872 10.7812 5 10.7812C4.46128 10.7812 3.94462 10.5672 3.56369 10.1863C3.18276 9.80538 2.96875 9.28872 2.96875 8.75V7.96875ZM15.7812 16.25C15.7812 16.2914 15.7648 16.3312 15.7355 16.3605C15.7062 16.3898 15.6664 16.4062 15.625 16.4062H4.375C4.33356 16.4062 4.29382 16.3898 4.26451 16.3605C4.23521 16.3312 4.21875 16.2914 4.21875 16.25V11.6141C4.82925 11.7802 5.47685 11.7469 6.0671 11.5191C6.65736 11.2913 7.15939 10.8808 7.5 10.3477C7.7679 10.7679 8.13741 11.1138 8.57437 11.3534C9.01133 11.593 9.50165 11.7187 10 11.7187C10.4984 11.7187 10.9887 11.593 11.4256 11.3534C11.8626 11.1138 12.2321 10.7679 12.5 10.3477C12.8406 10.8808 13.3426 11.2913 13.9329 11.5191C14.5232 11.7469 15.1708 11.7802 15.7812 11.6141V16.25ZM15 10.7812C14.4613 10.7812 13.9446 10.5672 13.5637 10.1863C13.1828 9.80538 12.9688 9.28872 12.9688 8.75V7.96875H17.0312V8.75C17.0312 9.28872 16.8172 9.80538 16.4363 10.1863C16.0554 10.5672 15.5387 10.7812 15 10.7812Z" fill="white"/>
</svg>
