<svg width="20" height="20" viewBox="0 0 20 20" fill="none" xmlns="http://www.w3.org/2000/svg">
<path d="M9.2048 16.9883C9.17952 17.0897 9.12104 17.1799 9.03865 17.2443C8.95626 17.3087 8.85469 17.3437 8.75011 17.3437C8.71166 17.3436 8.67337 17.3389 8.63605 17.3297L6.13605 16.7047C6.08407 16.6914 6.03469 16.6694 5.98995 16.6398L4.11495 15.3898C4.06366 15.3557 4.01959 15.3117 3.98527 15.2605C3.95095 15.2093 3.92705 15.1519 3.91494 15.0915C3.89047 14.9694 3.91549 14.8426 3.98449 14.739C4.05348 14.6354 4.16081 14.5635 4.28286 14.539C4.34329 14.5269 4.40551 14.5268 4.46598 14.5388C4.52644 14.5507 4.58397 14.5744 4.63527 14.6086L6.4423 15.8133L8.86417 16.4187C8.92397 16.4337 8.98023 16.4603 9.02972 16.4971C9.07922 16.5338 9.12098 16.5799 9.15262 16.6328C9.18426 16.6857 9.20515 16.7444 9.21411 16.8054C9.22306 16.8663 9.2199 16.9285 9.2048 16.9883ZM19.5743 9.44139C19.5295 9.57766 19.4581 9.70368 19.3642 9.81217C19.2703 9.92065 19.1559 10.0094 19.0275 10.0734L17.1525 11.0109L12.8314 15.332C12.7434 15.4197 12.6243 15.4688 12.5001 15.4687C12.4617 15.4687 12.4234 15.464 12.386 15.4547L7.38605 14.2047C7.32987 14.1901 7.27689 14.1652 7.2298 14.1312L2.88292 11.0281L0.974329 10.0734C0.714948 9.94368 0.517714 9.71623 0.426002 9.44109C0.334289 9.16595 0.355607 8.86566 0.485267 8.60623L2.42667 4.7242C2.55642 4.46482 2.78386 4.26759 3.059 4.17587C3.33414 4.08416 3.63444 4.10548 3.89386 4.23514L5.67199 5.1242L9.8712 3.9242C9.95545 3.9001 10.0448 3.9001 10.129 3.9242L14.3282 5.1242L16.1064 4.23514C16.3658 4.10548 16.6661 4.08416 16.9412 4.17587C17.2164 4.26759 17.4438 4.46482 17.5735 4.7242L19.515 8.60623C19.5795 8.73462 19.618 8.87453 19.6282 9.01787C19.6384 9.16121 19.6201 9.30516 19.5743 9.44139ZM1.39386 9.23514L2.91574 9.99998L5.00011 5.83436L3.47433 5.07342C3.43724 5.055 3.39435 5.05206 3.35509 5.06524C3.31583 5.07843 3.28341 5.10666 3.26495 5.14373L1.32355 9.02576C1.30538 9.06277 1.30257 9.10545 1.31574 9.14451C1.32184 9.16417 1.33193 9.18236 1.34537 9.19795C1.35881 9.21354 1.37532 9.2262 1.39386 9.23514ZM14.922 11.9133L12.5212 9.99061C11.0368 11.2703 9.11652 11.4594 7.53683 10.45C7.39862 10.3621 7.28192 10.2443 7.19533 10.1053C7.10875 9.96623 7.05449 9.80953 7.03657 9.64673C7.01865 9.48393 7.03752 9.31918 7.09178 9.16465C7.14605 9.01011 7.23433 8.86974 7.35011 8.75389L10.922 5.28826C10.9739 5.23816 11.0368 5.20072 11.1056 5.17889L10.0001 4.86248L5.95245 6.01561L3.72355 10.4765L7.70011 13.3164L12.3564 14.4805L14.922 11.9133ZM16.3032 10.532L14.0853 6.09373H11.44L8.00949 9.42186C7.99427 9.43781 7.98279 9.45696 7.9759 9.47791C7.96901 9.49886 7.96687 9.52107 7.96964 9.54295C7.97207 9.56681 7.97995 9.58979 7.99269 9.61011C8.00542 9.63043 8.02267 9.64755 8.04308 9.66014C9.08136 10.3234 10.7103 10.5094 12.1673 9.04139C12.2488 8.95954 12.3577 8.91068 12.4731 8.90419C12.5884 8.8977 12.7021 8.93404 12.7923 9.00623L15.5907 11.25L16.3032 10.532ZM18.6751 9.02576L16.7353 5.14373C16.7168 5.10666 16.6844 5.07843 16.6451 5.06524C16.6059 5.05206 16.563 5.055 16.5259 5.07342L15.004 5.83436L17.0845 9.99998L18.6064 9.23905C18.6249 9.23011 18.6414 9.21745 18.6549 9.20186C18.6683 9.18627 18.6784 9.16808 18.6845 9.14842C18.6915 9.12851 18.6945 9.10737 18.6931 9.08629C18.6918 9.06521 18.6862 9.04462 18.6767 9.02576H18.6751Z" fill="white"/>
</svg>
