<svg width="20" height="20" viewBox="0 0 20 20" fill="none" xmlns="http://www.w3.org/2000/svg">
<path d="M17.4257 5.41643C17.3156 5.47268 17.1877 5.48314 17.07 5.44554C16.9522 5.40793 16.854 5.3253 16.7968 5.21565C16.1872 4.01193 15.2642 2.99495 14.125 2.2719C14.0213 2.20493 13.9482 2.09976 13.9216 1.97924C13.895 1.85872 13.917 1.73256 13.9828 1.62816C14.0487 1.52376 14.153 1.44953 14.2732 1.42159C14.3935 1.39365 14.5198 1.41426 14.625 1.47893C15.9007 2.29504 16.9364 3.43589 17.6257 4.7844C17.6541 4.83904 17.6714 4.89872 17.6767 4.96005C17.682 5.02138 17.6752 5.08315 17.6566 5.14184C17.6381 5.20053 17.6081 5.25499 17.5685 5.3021C17.5289 5.34922 17.4804 5.38807 17.4257 5.41643ZM3.20309 5.21565C3.8127 4.01193 4.73576 2.99495 5.87497 2.2719C5.97864 2.20493 6.05171 2.09976 6.07832 1.97924C6.10493 1.85872 6.08293 1.73256 6.0171 1.62816C5.95127 1.52376 5.84692 1.44953 5.7267 1.42159C5.60648 1.39365 5.48009 1.41426 5.37497 1.47893C4.09918 2.29504 3.0635 3.43589 2.37418 4.7844C2.3397 4.83924 2.31696 4.90063 2.30739 4.9647C2.29782 5.02877 2.30163 5.09412 2.31859 5.15664C2.33555 5.21916 2.36528 5.27749 2.40591 5.32794C2.44654 5.37839 2.49718 5.41988 2.55465 5.44978C2.61212 5.47967 2.67516 5.49733 2.73979 5.50165C2.80443 5.50596 2.86925 5.49683 2.93018 5.47483C2.99111 5.45283 3.04682 5.41844 3.09379 5.37383C3.14076 5.32923 3.17798 5.27537 3.20309 5.21565ZM17.1875 13.8235C17.2842 13.9891 17.3357 14.1774 17.3367 14.3692C17.3377 14.5611 17.2883 14.7498 17.1933 14.9165C17.0983 15.0832 16.9611 15.222 16.7956 15.319C16.63 15.4159 16.4418 15.4676 16.25 15.4688H12.9297C12.8158 16.1637 12.4587 16.7955 11.922 17.2513C11.3853 17.7072 10.7041 17.9575 9.99997 17.9575C9.29581 17.9575 8.61459 17.7072 8.07793 17.2513C7.54127 16.7955 7.18413 16.1637 7.07028 15.4688H3.74997C3.55771 15.4684 3.36895 15.4173 3.20273 15.3207C3.0365 15.2241 2.89867 15.0854 2.80313 14.9186C2.70759 14.7517 2.65771 14.5626 2.65853 14.3704C2.65935 14.1781 2.71082 13.9895 2.80778 13.8235C3.52575 12.5852 3.90622 10.8305 3.90622 8.75003C3.90622 7.13387 4.54823 5.5839 5.69103 4.4411C6.83383 3.2983 8.3838 2.65628 9.99997 2.65628C11.6161 2.65628 13.1661 3.2983 14.3089 4.4411C15.4517 5.5839 16.0937 7.13387 16.0937 8.75003C16.0937 10.8594 16.464 12.5672 17.1937 13.8235H17.1875ZM11.9757 15.4688H8.02418C8.13019 15.913 8.38284 16.3086 8.74133 16.5916C9.09982 16.8746 9.54323 17.0286 9.99997 17.0286C10.4567 17.0286 10.9001 16.8746 11.2586 16.5916C11.6171 16.3086 11.8697 15.913 11.9757 15.4688ZM16.3836 14.2969C15.5695 12.8907 15.1562 11.0274 15.1562 8.75003C15.1562 7.38251 14.613 6.07099 13.646 5.10401C12.679 4.13702 11.3675 3.59378 9.99997 3.59378C8.63244 3.59378 7.32093 4.13702 6.35395 5.10401C5.38696 6.07099 4.84372 7.38251 4.84372 8.75003C4.84372 11.0282 4.43043 12.8907 3.61637 14.2969C3.60266 14.3207 3.59544 14.3476 3.59544 14.375C3.59544 14.4025 3.60266 14.4294 3.61637 14.4532C3.62924 14.4771 3.64843 14.497 3.67185 14.5108C3.69527 14.5246 3.72202 14.5317 3.74918 14.5313H16.25C16.2771 14.5317 16.3039 14.5246 16.3273 14.5108C16.3507 14.497 16.3699 14.4771 16.3828 14.4532C16.3966 14.4295 16.404 14.4026 16.4041 14.3751C16.4042 14.3477 16.3972 14.3207 16.3836 14.2969Z" fill="white"/>
</svg>
