<svg width="20" height="20" viewBox="0 0 20 20" fill="none" xmlns="http://www.w3.org/2000/svg">
<path d="M17.7712 5C17.6706 4.85551 17.5366 4.73745 17.3806 4.65584C17.2246 4.57423 17.0512 4.53149 16.8751 4.53125H10.4689V1.71875H11.8751C11.9994 1.71875 12.1187 1.66936 12.2066 1.58146C12.2945 1.49355 12.3439 1.37432 12.3439 1.25C12.3439 1.12568 12.2945 1.00645 12.2066 0.918544C12.1187 0.830636 11.9994 0.78125 11.8751 0.78125H8.1251C8.00078 0.78125 7.88155 0.830636 7.79365 0.918544C7.70574 1.00645 7.65635 1.12568 7.65635 1.25C7.65635 1.37432 7.70574 1.49355 7.79365 1.58146C7.88155 1.66936 8.00078 1.71875 8.1251 1.71875H9.53135V4.53125H3.1251C2.94932 4.53123 2.77612 4.57359 2.62018 4.65472C2.46424 4.73585 2.33016 4.85337 2.22928 4.99733C2.1284 5.14128 2.06371 5.30743 2.04068 5.4817C2.01765 5.65597 2.03696 5.83322 2.09698 5.99844L4.14307 11.6234C4.21971 11.8344 4.3594 12.0167 4.54318 12.1456C4.72697 12.2744 4.94595 12.3436 5.17041 12.3438H7.65635V17.5C7.65635 17.6243 7.70574 17.7435 7.79365 17.8315C7.88155 17.9194 8.00078 17.9688 8.1251 17.9688C8.24942 17.9688 8.36865 17.9194 8.45656 17.8315C8.54447 17.7435 8.59385 17.6243 8.59385 17.5V12.3438H11.4064V17.5C11.4064 17.6243 11.4557 17.7435 11.5436 17.8315C11.6316 17.9194 11.7508 17.9688 11.8751 17.9688C11.9994 17.9688 12.1187 17.9194 12.2066 17.8315C12.2945 17.7435 12.3439 17.6243 12.3439 17.5V12.3438H14.8298C15.0546 12.3441 15.2742 12.2751 15.4584 12.1462C15.6427 12.0173 15.7827 11.8348 15.8595 11.6234L17.9056 5.99844C17.9648 5.83343 17.9836 5.65659 17.9602 5.48283C17.9368 5.30906 17.872 5.14347 17.7712 5ZM8.51573 11.4062L7.43682 5.46875H12.5634L11.4845 11.4062H8.51573ZM5.02354 11.3031L2.97823 5.67812C2.96964 5.65454 2.96686 5.62923 2.97012 5.60435C2.97339 5.57946 2.9826 5.55573 2.99698 5.53516C3.01113 5.51431 3.03026 5.49732 3.05263 5.48573C3.075 5.47413 3.09991 5.4683 3.1251 5.46875H6.48448L7.56416 11.4062H5.17041C5.1383 11.4062 5.10697 11.3963 5.08069 11.3779C5.05441 11.3594 5.03446 11.3333 5.02354 11.3031ZM17.022 5.67812L14.9767 11.3031C14.9657 11.3333 14.9458 11.3594 14.9195 11.3779C14.8932 11.3963 14.8619 11.4062 14.8298 11.4062H12.4368L13.5157 5.46875H16.8751C16.9003 5.4683 16.9252 5.47413 16.9476 5.48573C16.9699 5.49732 16.9891 5.51431 17.0032 5.53516C17.0176 5.55573 17.0268 5.57946 17.0301 5.60435C17.0333 5.62923 17.0306 5.65454 17.022 5.67812Z" fill="white"/>
</svg>
