<svg width="20" height="20" viewBox="0 0 20 20" fill="none" xmlns="http://www.w3.org/2000/svg">
<path d="M10 2.03125C8.42393 2.03125 6.88326 2.49861 5.5728 3.37423C4.26235 4.24984 3.24097 5.49439 2.63784 6.95049C2.0347 8.40659 1.87689 10.0088 2.18437 11.5546C2.49185 13.1004 3.2508 14.5203 4.36525 15.6348C5.4797 16.7492 6.89959 17.5082 8.44538 17.8156C9.99116 18.1231 11.5934 17.9653 13.0495 17.3622C14.5056 16.759 15.7502 15.7377 16.6258 14.4272C17.5014 13.1167 17.9688 11.5761 17.9688 10C17.9663 7.88732 17.1259 5.86188 15.632 4.36798C14.1381 2.87409 12.1127 2.03373 10 2.03125ZM10 17.0312C8.60935 17.0312 7.24993 16.6189 6.09365 15.8463C4.93737 15.0737 4.03615 13.9755 3.50398 12.6907C2.9718 11.406 2.83255 9.9922 3.10386 8.62827C3.37516 7.26434 4.04482 6.01149 5.02816 5.02816C6.0115 4.04482 7.26435 3.37516 8.62827 3.10385C9.9922 2.83255 11.406 2.97179 12.6907 3.50397C13.9755 4.03615 15.0737 4.93736 15.8463 6.09365C16.6189 7.24993 17.0313 8.60935 17.0313 10C17.0292 11.8642 16.2877 13.6514 14.9696 14.9696C13.6514 16.2877 11.8642 17.0292 10 17.0312ZM12.9688 11.5625C12.9688 12.1012 12.7547 12.6179 12.3738 12.9988C11.9929 13.3797 11.4762 13.5938 10.9375 13.5938H10.4688V14.375C10.4688 14.4993 10.4194 14.6185 10.3315 14.7065C10.2436 14.7944 10.1243 14.8438 10 14.8438C9.87568 14.8438 9.75646 14.7944 9.66855 14.7065C9.58064 14.6185 9.53125 14.4993 9.53125 14.375V13.5938H8.125C8.00068 13.5938 7.88146 13.5444 7.79355 13.4565C7.70564 13.3685 7.65625 13.2493 7.65625 13.125C7.65625 13.0007 7.70564 12.8815 7.79355 12.7935C7.88146 12.7056 8.00068 12.6562 8.125 12.6562H10.9375C11.2276 12.6562 11.5058 12.541 11.7109 12.3359C11.916 12.1308 12.0313 11.8526 12.0313 11.5625C12.0313 11.2724 11.916 10.9942 11.7109 10.7891C11.5058 10.584 11.2276 10.4688 10.9375 10.4688H9.0625C8.52378 10.4688 8.00713 10.2547 7.62619 9.87381C7.24526 9.49288 7.03125 8.97622 7.03125 8.4375C7.03125 7.89878 7.24526 7.38212 7.62619 7.00119C8.00713 6.62026 8.52378 6.40625 9.0625 6.40625H9.53125V5.625C9.53125 5.50068 9.58064 5.38145 9.66855 5.29354C9.75646 5.20564 9.87568 5.15625 10 5.15625C10.1243 5.15625 10.2436 5.20564 10.3315 5.29354C10.4194 5.38145 10.4688 5.50068 10.4688 5.625V6.40625H11.875C11.9993 6.40625 12.1186 6.45564 12.2065 6.54354C12.2944 6.63145 12.3438 6.75068 12.3438 6.875C12.3438 6.99932 12.2944 7.11855 12.2065 7.20646C12.1186 7.29436 11.9993 7.34375 11.875 7.34375H9.0625C8.77242 7.34375 8.49422 7.45898 8.28911 7.6641C8.08399 7.86922 7.96875 8.14742 7.96875 8.4375C7.96875 8.72758 8.08399 9.00578 8.28911 9.2109C8.49422 9.41602 8.77242 9.53125 9.0625 9.53125H10.9375C11.4762 9.53125 11.9929 9.74526 12.3738 10.1262C12.7547 10.5071 12.9688 11.0238 12.9688 11.5625Z" fill="white"/>
</svg>
