<svg width="20" height="20" viewBox="0 0 20 20" fill="none" xmlns="http://www.w3.org/2000/svg">
<path d="M1.71875 7.5V13.125C1.71875 13.3322 1.80106 13.5309 1.94757 13.6774C2.09409 13.8239 2.2928 13.9062 2.5 13.9062H8.75C8.87432 13.9062 8.99355 13.9556 9.08146 14.0435C9.16936 14.1315 9.21875 14.2507 9.21875 14.375C9.21875 14.4993 9.16936 14.6185 9.08146 14.7065C8.99355 14.7944 8.87432 14.8438 8.75 14.8438H7.34375V16.4062H8.75C8.87432 16.4062 8.99355 16.4556 9.08146 16.5435C9.16936 16.6315 9.21875 16.7507 9.21875 16.875C9.21875 16.9993 9.16936 17.1185 9.08146 17.2065C8.99355 17.2944 8.87432 17.3438 8.75 17.3438H5C4.87568 17.3438 4.75645 17.2944 4.66854 17.2065C4.58064 17.1185 4.53125 16.9993 4.53125 16.875C4.53125 16.7507 4.58064 16.6315 4.66854 16.5435C4.75645 16.4556 4.87568 16.4062 5 16.4062H6.40625V14.8438H2.5C2.04416 14.8438 1.60699 14.6627 1.28466 14.3403C0.962332 14.018 0.78125 13.5808 0.78125 13.125V7.5C0.78125 7.04416 0.962332 6.60699 1.28466 6.28466C1.60699 5.96233 2.04416 5.78125 2.5 5.78125H8.75C8.87432 5.78125 8.99355 5.83064 9.08146 5.91854C9.16936 6.00645 9.21875 6.12568 9.21875 6.25C9.21875 6.37432 9.16936 6.49355 9.08146 6.58146C8.99355 6.66936 8.87432 6.71875 8.75 6.71875H2.5C2.2928 6.71875 2.09409 6.80106 1.94757 6.94757C1.80106 7.09409 1.71875 7.2928 1.71875 7.5ZM16.25 5.15625H13.75C13.6257 5.15625 13.5065 5.20564 13.4185 5.29354C13.3306 5.38145 13.2812 5.50068 13.2812 5.625C13.2812 5.74932 13.3306 5.86855 13.4185 5.95646C13.5065 6.04436 13.6257 6.09375 13.75 6.09375H16.25C16.3743 6.09375 16.4935 6.04436 16.5815 5.95646C16.6694 5.86855 16.7188 5.74932 16.7188 5.625C16.7188 5.50068 16.6694 5.38145 16.5815 5.29354C16.4935 5.20564 16.3743 5.15625 16.25 5.15625ZM16.25 7.65625H13.75C13.6257 7.65625 13.5065 7.70564 13.4185 7.79354C13.3306 7.88145 13.2812 8.00068 13.2812 8.125C13.2812 8.24932 13.3306 8.36855 13.4185 8.45646C13.5065 8.54436 13.6257 8.59375 13.75 8.59375H16.25C16.3743 8.59375 16.4935 8.54436 16.5815 8.45646C16.6694 8.36855 16.7188 8.24932 16.7188 8.125C16.7188 8.00068 16.6694 7.88145 16.5815 7.79354C16.4935 7.70564 16.3743 7.65625 16.25 7.65625ZM19.2188 3.75V16.25C19.2188 16.5401 19.1035 16.8183 18.8984 17.0234C18.6933 17.2285 18.4151 17.3438 18.125 17.3438H11.875C11.5849 17.3438 11.3067 17.2285 11.1016 17.0234C10.8965 16.8183 10.7812 16.5401 10.7812 16.25V3.75C10.7812 3.45992 10.8965 3.18172 11.1016 2.9766C11.3067 2.77148 11.5849 2.65625 11.875 2.65625H18.125C18.4151 2.65625 18.6933 2.77148 18.8984 2.9766C19.1035 3.18172 19.2188 3.45992 19.2188 3.75ZM18.2812 3.75C18.2812 3.70856 18.2648 3.66882 18.2355 3.63951C18.2062 3.61021 18.1664 3.59375 18.125 3.59375H11.875C11.8336 3.59375 11.7938 3.61021 11.7645 3.63951C11.7352 3.66882 11.7188 3.70856 11.7188 3.75V16.25C11.7188 16.2914 11.7352 16.3312 11.7645 16.3605C11.7938 16.3898 11.8336 16.4062 11.875 16.4062H18.125C18.1664 16.4062 18.2062 16.3898 18.2355 16.3605C18.2648 16.3312 18.2812 16.2914 18.2812 16.25V3.75ZM15 13.2812C14.8455 13.2812 14.6944 13.3271 14.566 13.4129C14.4375 13.4988 14.3373 13.6208 14.2782 13.7635C14.2191 13.9063 14.2036 14.0634 14.2338 14.2149C14.2639 14.3665 14.3383 14.5057 14.4476 14.6149C14.5568 14.7242 14.696 14.7986 14.8476 14.8287C14.9991 14.8589 15.1562 14.8434 15.299 14.7843C15.4417 14.7252 15.5637 14.625 15.6496 14.4965C15.7354 14.3681 15.7812 14.217 15.7812 14.0625C15.7812 13.8553 15.6989 13.6566 15.5524 13.5101C15.4059 13.3636 15.2072 13.2812 15 13.2812Z" fill="white"/>
</svg>
