<svg width="20" height="20" viewBox="0 0 20 20" fill="none" xmlns="http://www.w3.org/2000/svg">
<path d="M8.28125 8.75C8.28125 8.62568 8.33064 8.50645 8.41854 8.41854C8.50645 8.33064 8.62568 8.28125 8.75 8.28125H11.25C11.3743 8.28125 11.4935 8.33064 11.5815 8.41854C11.6694 8.50645 11.7188 8.62568 11.7188 8.75C11.7188 8.87432 11.6694 8.99355 11.5815 9.08146C11.4935 9.16936 11.3743 9.21875 11.25 9.21875H8.75C8.62568 9.21875 8.50645 9.16936 8.41854 9.08146C8.33064 8.99355 8.28125 8.87432 8.28125 8.75ZM17.9688 5.625V15.625C17.9688 15.9151 17.8535 16.1933 17.6484 16.3984C17.4433 16.6035 17.1651 16.7188 16.875 16.7188H3.125C2.83492 16.7188 2.55672 16.6035 2.3516 16.3984C2.14648 16.1933 2.03125 15.9151 2.03125 15.625V5.625C2.03125 5.33492 2.14648 5.05672 2.3516 4.8516C2.55672 4.64648 2.83492 4.53125 3.125 4.53125H6.40625V3.75C6.40625 3.29416 6.58733 2.85699 6.90966 2.53466C7.23199 2.21233 7.66916 2.03125 8.125 2.03125H11.875C12.3308 2.03125 12.768 2.21233 13.0903 2.53466C13.4127 2.85699 13.5938 3.29416 13.5938 3.75V4.53125H16.875C17.1651 4.53125 17.4433 4.64648 17.6484 4.8516C17.8535 5.05672 17.9688 5.33492 17.9688 5.625ZM7.34375 4.53125H12.6562V3.75C12.6562 3.5428 12.5739 3.34409 12.4274 3.19757C12.2809 3.05106 12.0822 2.96875 11.875 2.96875H8.125C7.9178 2.96875 7.71909 3.05106 7.57257 3.19757C7.42606 3.34409 7.34375 3.5428 7.34375 3.75V4.53125ZM2.96875 5.625V8.96797C5.12128 10.1577 7.54057 10.7816 10 10.7812C12.4595 10.7817 14.8789 10.1575 17.0312 8.96719V5.625C17.0312 5.58356 17.0148 5.54382 16.9855 5.51451C16.9562 5.48521 16.9164 5.46875 16.875 5.46875H3.125C3.08356 5.46875 3.04382 5.48521 3.01451 5.51451C2.98521 5.54382 2.96875 5.58356 2.96875 5.625ZM17.0312 15.625V10.0289C14.8538 11.1395 12.4443 11.7186 10 11.7188C7.55574 11.719 5.14619 11.1402 2.96875 10.0297V15.625C2.96875 15.6664 2.98521 15.7062 3.01451 15.7355C3.04382 15.7648 3.08356 15.7812 3.125 15.7812H16.875C16.9164 15.7812 16.9562 15.7648 16.9855 15.7355C17.0148 15.7062 17.0312 15.6664 17.0312 15.625Z" fill="#114E8C"/>
</svg>
