<svg width="20" height="20" viewBox="0 0 20 20" fill="none" xmlns="http://www.w3.org/2000/svg">
<path d="M19.0312 11.625C18.982 11.662 18.926 11.6888 18.8663 11.7041C18.8067 11.7194 18.7446 11.7228 18.6837 11.7141C18.6228 11.7054 18.5641 11.6847 18.5112 11.6534C18.4582 11.622 18.4119 11.5805 18.375 11.5313C17.9838 11.0054 17.4746 10.5788 16.8884 10.2857C16.3022 9.99257 15.6554 9.84121 15 9.84378C14.8757 9.84378 14.7565 9.79439 14.6685 9.70649C14.5806 9.61858 14.5312 9.49935 14.5312 9.37503C14.5312 9.25071 14.5806 9.13148 14.6685 9.04357C14.7565 8.95567 14.8757 8.90628 15 8.90628C15.3799 8.9062 15.7522 8.79958 16.0745 8.59855C16.3968 8.39751 16.6563 8.1101 16.8235 7.76898C16.9907 7.42785 17.0589 7.04668 17.0203 6.66875C16.9817 6.29082 16.8379 5.93128 16.6053 5.63098C16.3726 5.33067 16.0604 5.10163 15.7041 4.96987C15.3478 4.83811 14.9616 4.80891 14.5896 4.88559C14.2175 4.96227 13.8744 5.14176 13.5992 5.40366C13.324 5.66556 13.1278 5.99939 13.0328 6.36722C13.0017 6.4876 12.9241 6.59071 12.817 6.65386C12.7099 6.717 12.5821 6.73502 12.4617 6.70394C12.3413 6.67286 12.2382 6.59523 12.1751 6.48813C12.1119 6.38103 12.0939 6.25323 12.125 6.13284C12.2428 5.67459 12.4685 5.25113 12.7832 4.89777C13.0978 4.54441 13.4924 4.27138 13.934 4.10145C14.3756 3.93151 14.8514 3.86959 15.3218 3.92084C15.7922 3.97209 16.2435 4.13503 16.6381 4.39607C17.0328 4.65712 17.3593 5.00872 17.5905 5.42155C17.8217 5.83438 17.9508 6.2965 17.9672 6.76938C17.9836 7.24226 17.8867 7.7122 17.6846 8.14004C17.4825 8.56788 17.1811 8.94122 16.8055 9.22894C17.7298 9.57387 18.5351 10.1779 19.125 10.9688C19.1619 11.018 19.1888 11.0741 19.2041 11.1337C19.2194 11.1933 19.2227 11.2554 19.214 11.3163C19.2053 11.3773 19.1847 11.4359 19.1533 11.4889C19.122 11.5418 19.0805 11.5881 19.0312 11.625ZM14.7805 16.6407C14.8113 16.694 14.8314 16.7528 14.8395 16.8138C14.8475 16.8749 14.8435 16.9369 14.8276 16.9964C14.8118 17.0559 14.7843 17.1117 14.7469 17.1606C14.7094 17.2094 14.6627 17.2505 14.6094 17.2813C14.5383 17.3229 14.4574 17.3448 14.375 17.3446C14.2927 17.3446 14.2118 17.323 14.1405 17.2818C14.0691 17.2407 14.0099 17.1815 13.9688 17.1102C13.5613 16.4198 12.9809 15.8477 12.2847 15.4502C11.5886 15.0528 10.8008 14.8437 9.99922 14.8437C9.1976 14.8437 8.40985 15.0528 7.71371 15.4502C7.01758 15.8477 6.43714 16.4198 6.02969 17.1102C6.00038 17.1662 5.96005 17.2157 5.91112 17.2557C5.86218 17.2958 5.80566 17.3255 5.74494 17.3431C5.68422 17.3607 5.62057 17.3659 5.55781 17.3582C5.49505 17.3506 5.43449 17.3304 5.37975 17.2987C5.32502 17.2671 5.27725 17.2247 5.23932 17.1741C5.20139 17.1236 5.17409 17.0658 5.15904 17.0044C5.144 16.943 5.14154 16.8792 5.1518 16.8168C5.16206 16.7544 5.18483 16.6948 5.21875 16.6414C5.85721 15.5444 6.85689 14.7033 8.04688 14.2618C7.39684 13.8397 6.90066 13.2188 6.63236 12.4917C6.36406 11.7646 6.33801 10.9702 6.5581 10.2271C6.77819 9.48395 7.23262 8.83188 7.85361 8.36815C8.4746 7.90441 9.22887 7.65386 10.0039 7.65386C10.7789 7.65386 11.5332 7.90441 12.1542 8.36815C12.7752 8.83188 13.2296 9.48395 13.4497 10.2271C13.6698 10.9702 13.6438 11.7646 13.3754 12.4917C13.1071 13.2188 12.611 13.8397 11.9609 14.2618C13.1476 14.7048 14.144 15.5455 14.7805 16.6407ZM10 13.9063C10.5254 13.9063 11.0389 13.7505 11.4757 13.4586C11.9126 13.1667 12.253 12.7519 12.4541 12.2665C12.6551 11.7812 12.7077 11.2471 12.6052 10.7318C12.5027 10.2166 12.2497 9.74326 11.8783 9.37178C11.5068 9.0003 11.0335 8.74731 10.5182 8.64482C10.0029 8.54233 9.46886 8.59493 8.9835 8.79598C8.49813 8.99702 8.08328 9.33748 7.79141 9.7743C7.49954 10.2111 7.34375 10.7247 7.34375 11.25C7.34375 11.9545 7.6236 12.6301 8.12175 13.1283C8.61989 13.6264 9.29552 13.9063 10 13.9063ZM5.46875 9.37503C5.46875 9.25071 5.41936 9.13148 5.33146 9.04357C5.24355 8.95567 5.12432 8.90628 5 8.90628C4.62015 8.90616 4.24794 8.79953 3.92565 8.59851C3.60335 8.39748 3.34388 8.11011 3.1767 7.76902C3.00952 7.42794 2.94133 7.04682 2.97987 6.66893C3.01842 6.29104 3.16215 5.93152 3.39474 5.63122C3.62734 5.33091 3.93949 5.10184 4.29573 4.97002C4.65198 4.8382 5.03804 4.80891 5.4101 4.88548C5.78215 4.96205 6.12528 5.14141 6.40052 5.40319C6.67576 5.66497 6.87208 5.99869 6.96719 6.36644C6.98258 6.42604 7.00956 6.48204 7.04658 6.53122C7.08361 6.5804 7.12997 6.62181 7.183 6.65307C7.23603 6.68434 7.2947 6.70486 7.35566 6.71345C7.41662 6.72204 7.47867 6.71855 7.53828 6.70316C7.59789 6.68777 7.65388 6.66079 7.70306 6.62376C7.75224 6.58673 7.79365 6.54038 7.82492 6.48735C7.85619 6.43431 7.8767 6.37564 7.88529 6.31468C7.89389 6.25373 7.89039 6.19167 7.875 6.13206C7.75717 5.6738 7.53152 5.25035 7.21685 4.89699C6.90217 4.54363 6.50759 4.2706 6.066 4.10067C5.62441 3.93073 5.14859 3.8688 4.67821 3.92005C4.20783 3.9713 3.75652 4.13424 3.36188 4.39529C2.96725 4.65634 2.64073 5.00793 2.40953 5.42077C2.17834 5.8336 2.04917 6.29572 2.0328 6.7686C2.01642 7.24148 2.11332 7.71142 2.3154 8.13926C2.51748 8.5671 2.8189 8.94044 3.19453 9.22816C2.27009 9.5733 1.46476 10.1776 0.875 10.9688C0.838066 11.018 0.811193 11.0741 0.795915 11.1337C0.780638 11.1933 0.777256 11.2554 0.785961 11.3163C0.794667 11.3773 0.81529 11.4359 0.846653 11.4889C0.878016 11.5418 0.919504 11.5881 0.96875 11.625C1.018 11.662 1.07403 11.6888 1.13367 11.7041C1.1933 11.7194 1.25535 11.7228 1.31629 11.7141C1.37723 11.7054 1.43586 11.6847 1.48883 11.6534C1.54179 11.622 1.58807 11.5805 1.625 11.5313C2.01618 11.0054 2.52537 10.5788 3.11157 10.2857C3.69777 9.99257 4.34461 9.84121 5 9.84378C5.12432 9.84378 5.24355 9.79439 5.33146 9.70649C5.41936 9.61858 5.46875 9.49935 5.46875 9.37503Z" fill="#114E8C"/>
</svg>
