<svg width="20" height="20" viewBox="0 0 20 20" fill="none" xmlns="http://www.w3.org/2000/svg">
<path d="M13.7501 12.6563C13.3326 12.6561 12.9199 12.7442 12.5388 12.9148C12.1578 13.0854 11.8171 13.3346 11.5392 13.6461L7.71887 11.1906C7.88374 10.8153 7.96887 10.4099 7.96887 10C7.96887 9.5901 7.88374 9.18466 7.71887 8.80938L11.5392 6.35391C12.0376 6.90986 12.7272 7.25759 13.4705 7.3278C14.2139 7.398 14.9564 7.18553 15.5501 6.73272C16.1437 6.27992 16.545 5.62003 16.6739 4.88458C16.8027 4.14914 16.6498 3.39213 16.2454 2.76445C15.841 2.13676 15.215 1.68449 14.4921 1.49777C13.7692 1.31106 13.0024 1.4036 12.3447 1.75697C11.6869 2.11033 11.1865 2.69857 10.9431 3.40443C10.6997 4.1103 10.7312 4.88196 11.0314 5.56563L7.21106 8.0211C6.81026 7.57289 6.28281 7.25694 5.69851 7.11507C5.11421 6.97321 4.5006 7.0121 3.93889 7.22662C3.37719 7.44113 2.89386 7.82115 2.55286 8.31639C2.21187 8.81163 2.0293 9.39873 2.0293 10C2.0293 10.6013 2.21187 11.1884 2.55286 11.6836C2.89386 12.1789 3.37719 12.5589 3.93889 12.7734C4.5006 12.9879 5.11421 13.0268 5.69851 12.8849C6.28281 12.7431 6.81026 12.4271 7.21106 11.9789L11.0314 14.4344C10.7749 15.0202 10.7144 15.6731 10.859 16.296C11.0035 16.9189 11.3453 17.4785 11.8335 17.8915C12.3218 18.3045 12.9303 18.5489 13.5685 18.5881C14.2068 18.6274 14.8407 18.4596 15.3759 18.1096C15.911 17.7595 16.3189 17.2461 16.5387 16.6456C16.7586 16.0451 16.7786 15.3897 16.5959 14.7768C16.4132 14.164 16.0375 13.6266 15.5248 13.2445C15.012 12.8624 14.3896 12.6561 13.7501 12.6563ZM13.7501 2.34375C14.1519 2.34375 14.5446 2.46289 14.8786 2.68608C15.2127 2.90928 15.473 3.22652 15.6267 3.59768C15.7805 3.96884 15.8207 4.37726 15.7423 4.77128C15.664 5.16531 15.4705 5.52724 15.1864 5.81132C14.9024 6.09539 14.5404 6.28885 14.1464 6.36723C13.7524 6.4456 13.344 6.40538 12.9728 6.25164C12.6016 6.09789 12.2844 5.83754 12.0612 5.50351C11.838 5.16947 11.7189 4.77675 11.7189 4.375C11.7189 3.83628 11.9329 3.31963 12.3138 2.93869C12.6947 2.55776 13.2114 2.34375 13.7501 2.34375ZM5.00012 12.0313C4.59837 12.0313 4.20565 11.9121 3.87162 11.6889C3.53758 11.4657 3.27723 11.1485 3.12349 10.7773C2.96975 10.4062 2.92952 9.99775 3.0079 9.60373C3.08627 9.2097 3.27973 8.84777 3.56381 8.56369C3.84788 8.27962 4.20982 8.08616 4.60384 8.00778C4.99786 7.92941 5.40628 7.96963 5.77744 8.12337C6.14861 8.27711 6.46584 8.53747 6.68904 8.8715C6.91224 9.20554 7.03137 9.59826 7.03137 10C7.03137 10.5387 6.81736 11.0554 6.43643 11.4363C6.05549 11.8172 5.53884 12.0313 5.00012 12.0313ZM13.7501 17.6563C13.3484 17.6563 12.9557 17.5371 12.6216 17.3139C12.2876 17.0907 12.0272 16.7735 11.8735 16.4023C11.7197 16.0312 11.6795 15.6228 11.7579 15.2287C11.8363 14.8347 12.0297 14.4728 12.3138 14.1887C12.5979 13.9046 12.9598 13.7112 13.3538 13.6328C13.7479 13.5544 14.1563 13.5946 14.5274 13.7484C14.8986 13.9021 15.2158 14.1625 15.439 14.4965C15.6622 14.8305 15.7814 15.2233 15.7814 15.625C15.7814 15.8918 15.7288 16.1559 15.6267 16.4023C15.5247 16.6488 15.375 16.8727 15.1864 17.0613C14.9978 17.2499 14.7739 17.3996 14.5274 17.5016C14.281 17.6037 14.0169 17.6563 13.7501 17.6563Z" fill="#114E8C"/>
</svg>
