<svg width="20" height="20" viewBox="0 0 20 20" fill="none" xmlns="http://www.w3.org/2000/svg">
<path d="M12.4305 11.1039C12.923 10.7265 13.285 10.2043 13.4654 9.61067C13.6459 9.017 13.6358 8.3817 13.4366 7.79406C13.2373 7.20642 12.859 6.69597 12.3547 6.33446C11.8504 5.97294 11.2455 5.77851 10.625 5.77851C10.0045 5.77851 9.39961 5.97294 8.89531 6.33446C8.39101 6.69597 8.01267 7.20642 7.81344 7.79406C7.61421 8.3817 7.60412 9.017 7.78458 9.61067C7.96503 10.2043 8.32697 10.7265 8.81953 11.1039C7.89532 11.4491 7.09006 12.0531 6.5 12.8438C6.42541 12.9432 6.39338 13.0682 6.41096 13.1913C6.42854 13.3144 6.49429 13.4254 6.59375 13.5C6.69321 13.5746 6.81822 13.6066 6.94129 13.589C7.06436 13.5715 7.17541 13.5057 7.25 13.4062C7.64296 12.8823 8.15252 12.457 8.73832 12.1641C9.32411 11.8712 9.97006 11.7188 10.625 11.7188C11.2799 11.7188 11.9259 11.8712 12.5117 12.1641C13.0975 12.457 13.607 12.8823 14 13.4062C14.0746 13.5057 14.1856 13.5715 14.3087 13.589C14.4318 13.6066 14.5568 13.5746 14.6562 13.5C14.7557 13.4254 14.8215 13.3144 14.839 13.1913C14.8566 13.0682 14.8246 12.9432 14.75 12.8438C14.1599 12.0531 13.3547 11.4491 12.4305 11.1039ZM8.59375 8.75C8.59375 8.34826 8.71288 7.95554 8.93608 7.6215C9.15927 7.28746 9.47651 7.02711 9.84767 6.87337C10.2188 6.71963 10.6273 6.6794 11.0213 6.75778C11.4153 6.83616 11.7772 7.02961 12.0613 7.31369C12.3454 7.59776 12.5388 7.9597 12.6172 8.35372C12.6956 8.74775 12.6554 9.15616 12.5016 9.52733C12.3479 9.89849 12.0875 10.2157 11.7535 10.4389C11.4195 10.6621 11.0267 10.7812 10.625 10.7812C10.0863 10.7812 9.56962 10.5672 9.18869 10.1863C8.80776 9.80538 8.59375 9.28872 8.59375 8.75ZM16.25 2.03125H5C4.70992 2.03125 4.43172 2.14648 4.2266 2.3516C4.02148 2.55672 3.90625 2.83492 3.90625 3.125V5.15625H2.5C2.37568 5.15625 2.25645 5.20564 2.16854 5.29354C2.08064 5.38145 2.03125 5.50068 2.03125 5.625C2.03125 5.74932 2.08064 5.86855 2.16854 5.95646C2.25645 6.04436 2.37568 6.09375 2.5 6.09375H3.90625V9.53125H2.5C2.37568 9.53125 2.25645 9.58064 2.16854 9.66854C2.08064 9.75645 2.03125 9.87568 2.03125 10C2.03125 10.1243 2.08064 10.2435 2.16854 10.3315C2.25645 10.4194 2.37568 10.4688 2.5 10.4688H3.90625V13.9062H2.5C2.37568 13.9062 2.25645 13.9556 2.16854 14.0435C2.08064 14.1315 2.03125 14.2507 2.03125 14.375C2.03125 14.4993 2.08064 14.6185 2.16854 14.7065C2.25645 14.7944 2.37568 14.8438 2.5 14.8438H3.90625V16.875C3.90625 17.1651 4.02148 17.4433 4.2266 17.6484C4.43172 17.8535 4.70992 17.9688 5 17.9688H16.25C16.5401 17.9688 16.8183 17.8535 17.0234 17.6484C17.2285 17.4433 17.3438 17.1651 17.3438 16.875V3.125C17.3438 2.83492 17.2285 2.55672 17.0234 2.3516C16.8183 2.14648 16.5401 2.03125 16.25 2.03125ZM16.4062 16.875C16.4062 16.9164 16.3898 16.9562 16.3605 16.9855C16.3312 17.0148 16.2914 17.0312 16.25 17.0312H5C4.95856 17.0312 4.91882 17.0148 4.88951 16.9855C4.86021 16.9562 4.84375 16.9164 4.84375 16.875V3.125C4.84375 3.08356 4.86021 3.04382 4.88951 3.01451C4.91882 2.98521 4.95856 2.96875 5 2.96875H16.25C16.2914 2.96875 16.3312 2.98521 16.3605 3.01451C16.3898 3.04382 16.4062 3.08356 16.4062 3.125V16.875Z" fill="#114E8C"/>
</svg>
