<svg width="20" height="20" viewBox="0 0 20 20" fill="none" xmlns="http://www.w3.org/2000/svg">
<path d="M9.99989 6.40627C9.28911 6.40627 8.5943 6.61704 8.00331 7.01192C7.41232 7.40681 6.9517 7.96808 6.6797 8.62475C6.40769 9.28142 6.33653 10.004 6.47519 10.7011C6.61386 11.3982 6.95613 12.0386 7.45872 12.5412C7.96132 13.0438 8.60166 13.386 9.29878 13.5247C9.9959 13.6634 10.7185 13.5922 11.3752 13.3202C12.0318 13.0482 12.5931 12.5876 12.988 11.9966C13.3829 11.4056 13.5936 10.7108 13.5936 10C13.5924 9.04728 13.2134 8.13391 12.5397 7.46022C11.866 6.78653 10.9526 6.40751 9.99989 6.40627ZM9.99989 12.6563C9.47453 12.6563 8.96097 12.5005 8.52415 12.2086C8.08734 11.9167 7.74688 11.5019 7.54583 11.0165C7.34479 10.5312 7.29218 9.99707 7.39468 9.48181C7.49717 8.96655 7.75015 8.49325 8.12164 8.12176C8.49312 7.75028 8.96642 7.4973 9.48168 7.39481C9.99694 7.29231 10.531 7.34492 11.0164 7.54596C11.5018 7.74701 11.9166 8.08747 12.2085 8.52428C12.5004 8.9611 12.6561 9.47466 12.6561 10C12.6561 10.7045 12.3763 11.3801 11.8781 11.8783C11.38 12.3764 10.7044 12.6563 9.99989 12.6563ZM16.7186 10.2219C16.7233 10.0742 16.7233 9.9258 16.7186 9.77814L17.9163 8.28127C17.9621 8.22397 17.9938 8.15672 18.0088 8.08494C18.0239 8.01317 18.0219 7.93885 18.003 7.86799C17.8156 7.16179 17.535 6.4837 17.1686 5.85158C17.1322 5.78742 17.0812 5.73276 17.0197 5.69204C16.9582 5.65131 16.888 5.62567 16.8147 5.6172L14.9046 5.40549C14.8041 5.29767 14.6999 5.19351 14.5921 5.09299L14.3796 3.18205C14.3711 3.10878 14.3455 3.03854 14.3047 2.97704C14.264 2.91555 14.2094 2.86453 14.1452 2.82814C13.5139 2.4628 12.8369 2.18275 12.1319 1.99533C12.0609 1.97676 11.9865 1.97515 11.9147 1.99062C11.8429 2.00609 11.7757 2.03821 11.7186 2.08439L10.2186 3.28517C10.071 3.28049 9.92254 3.28049 9.77489 3.28517L8.28114 2.08361C8.22384 2.03783 8.15659 2.00614 8.08482 1.99108C8.01304 1.97601 7.93873 1.97801 7.86786 1.99689C7.16166 2.18428 6.48357 2.46487 5.85145 2.83127C5.7873 2.86766 5.73263 2.91867 5.69191 2.98017C5.65118 3.04166 5.62554 3.1119 5.61708 3.18517L5.40848 5.09533C5.30067 5.19637 5.1965 5.30054 5.09598 5.40783L3.18426 5.62502C3.11099 5.63348 3.04076 5.65912 2.97926 5.69985C2.91776 5.74057 2.86675 5.79524 2.83036 5.85939C2.46501 6.49074 2.18497 7.16773 1.99754 7.87267C1.97943 7.94285 1.97783 8.01627 1.99288 8.08716C2.00792 8.15806 2.0392 8.2245 2.08426 8.28127L3.28504 9.78127C3.28036 9.92892 3.28036 10.0774 3.28504 10.225L2.08348 11.7227C2.0377 11.78 2.00601 11.8472 1.99095 11.919C1.97589 11.9908 1.97788 12.0651 1.99676 12.136C2.18447 12.8408 2.46506 13.5176 2.83114 14.1485C2.86753 14.2126 2.91855 14.2673 2.98004 14.308C3.04154 14.3487 3.11177 14.3744 3.18504 14.3828L5.0952 14.5945C5.19624 14.7024 5.30041 14.8065 5.4077 14.907L5.62489 16.8156C5.63336 16.8889 5.659 16.9592 5.69972 17.0206C5.74045 17.0821 5.79511 17.1332 5.85926 17.1695C6.49061 17.5349 7.1676 17.8149 7.87254 18.0024C7.94341 18.0212 8.01772 18.0232 8.0895 18.0082C8.16128 17.9931 8.22852 17.9614 8.28583 17.9156L9.77801 16.7188C9.92567 16.7235 10.0741 16.7235 10.2218 16.7188L11.7225 17.9203C11.8057 17.9867 11.9091 18.0228 12.0155 18.0227C12.0561 18.0225 12.0965 18.0173 12.1358 18.007C12.8407 17.8193 13.5174 17.5388 14.1483 17.1727C14.2125 17.1363 14.2671 17.0853 14.3079 17.0238C14.3486 16.9623 14.3742 16.892 14.3827 16.8188L14.5944 14.9086C14.7022 14.8081 14.8064 14.7039 14.9069 14.5961L16.8179 14.3836C16.8911 14.3751 16.9614 14.3495 17.0229 14.3088C17.0844 14.2681 17.1354 14.2134 17.1718 14.1492C17.5372 13.518 17.8173 12.8409 18.0046 12.136C18.0235 12.0651 18.0255 11.9908 18.0104 11.919C17.9953 11.8472 17.9636 11.78 17.9179 11.7227L16.7186 10.2219ZM16.4765 13.4742L14.6296 13.6797C14.5142 13.693 14.4078 13.7487 14.3311 13.836C14.1767 14.0099 14.0121 14.1745 13.8382 14.3289C13.7509 14.4056 13.6952 14.512 13.6819 14.6274L13.4765 16.4735C13.0441 16.704 12.5897 16.8909 12.1202 17.0313L10.6694 15.8703C10.5862 15.8039 10.4829 15.7678 10.3765 15.768H10.3483C10.1162 15.7813 9.88355 15.7813 9.65145 15.768C9.53553 15.7609 9.42111 15.7971 9.33036 15.8695L7.88036 17.0313C7.41126 16.8901 6.95745 16.7025 6.52567 16.4711L6.3202 14.6258C6.3069 14.5104 6.25121 14.404 6.16395 14.3274C5.99001 14.1729 5.82539 14.0083 5.67098 13.8344C5.5943 13.7471 5.48795 13.6914 5.37254 13.6781L3.52645 13.4727C3.2961 13.0415 3.10924 12.5885 2.96864 12.1203L4.12958 10.6695C4.20204 10.5788 4.23823 10.4644 4.23114 10.3485C4.21786 10.1164 4.21786 9.88368 4.23114 9.65158C4.23823 9.53566 4.20204 9.42124 4.12958 9.33049L2.96864 7.88049C3.10977 7.41139 3.29742 6.95758 3.52879 6.5258L5.37411 6.32033C5.48951 6.30703 5.59586 6.25134 5.67254 6.16408C5.82696 5.99014 5.99157 5.82552 6.16551 5.67111C6.25278 5.59443 6.30846 5.48808 6.32176 5.37267L6.52723 3.52658C6.95839 3.29623 7.4114 3.10937 7.87958 2.96877L9.33036 4.1297C9.42111 4.20217 9.53553 4.23836 9.65145 4.23127C9.88355 4.21799 10.1162 4.21799 10.3483 4.23127C10.4642 4.23836 10.5787 4.20217 10.6694 4.1297L12.1194 2.96877C12.5885 3.1099 13.0423 3.29755 13.4741 3.52892L13.6796 5.3758C13.6929 5.4912 13.7486 5.59755 13.8358 5.67424C14.0098 5.82865 14.1744 5.99326 14.3288 6.1672C14.4055 6.25447 14.5118 6.31015 14.6272 6.32345L16.4733 6.52892C16.7036 6.95958 16.8904 7.41207 17.0311 7.8797L15.8702 9.33049C15.7977 9.42124 15.7615 9.53566 15.7686 9.65158C15.7819 9.88368 15.7819 10.1164 15.7686 10.3485C15.7615 10.4644 15.7977 10.5788 15.8702 10.6695L17.0311 12.1195C16.8905 12.5886 16.7034 13.0424 16.4725 13.4742H16.4765Z" fill="#114E8C"/>
</svg>
