<svg width="20" height="20" viewBox="0 0 20 20" fill="none" xmlns="http://www.w3.org/2000/svg">
<path d="M17.2352 4.7C17.1912 4.64719 17.1361 4.6047 17.0739 4.57553C17.0116 4.54637 16.9437 4.53125 16.875 4.53125H4.14062L3.73672 2.30469C3.69096 2.05254 3.55811 1.82446 3.36135 1.66026C3.16459 1.49606 2.91643 1.40616 2.66016 1.40625H1.25C1.12568 1.40625 1.00645 1.45564 0.918544 1.54354C0.830636 1.63145 0.78125 1.75068 0.78125 1.875C0.78125 1.99932 0.830636 2.11855 0.918544 2.20646C1.00645 2.29436 1.12568 2.34375 1.25 2.34375H2.65625C2.69325 2.34315 2.72926 2.35569 2.75787 2.37916C2.78649 2.40262 2.80584 2.43548 2.8125 2.47188L4.80547 13.4328C4.86869 13.7825 5.03905 14.1038 5.29297 14.3523C4.98635 14.5976 4.75738 14.9264 4.63377 15.2991C4.51016 15.6718 4.4972 16.0723 4.59647 16.4522C4.69574 16.832 4.90297 17.175 5.1931 17.4395C5.48322 17.7041 5.8438 17.8789 6.2312 17.9428C6.6186 18.0067 7.01621 17.9569 7.37592 17.7995C7.73563 17.6422 8.04202 17.3839 8.25801 17.056C8.474 16.7281 8.59034 16.3447 8.59294 15.952C8.59553 15.5594 8.48429 15.1745 8.27266 14.8438H12.3523C12.1094 15.2239 12 15.6741 12.0412 16.1233C12.0825 16.5725 12.2722 16.9953 12.5803 17.3248C12.8884 17.6543 13.2974 17.8719 13.7429 17.9432C14.1883 18.0145 14.6448 17.9355 15.0404 17.7187C15.436 17.5018 15.7481 17.1594 15.9276 16.7455C16.107 16.3316 16.1436 15.8698 16.0315 15.4328C15.9194 14.9958 15.6651 14.6086 15.3085 14.3322C14.952 14.0558 14.5136 13.9059 14.0625 13.9062H6.49766C6.31469 13.9063 6.13752 13.8421 5.99703 13.7249C5.85655 13.6077 5.76166 13.4449 5.72891 13.2648L5.44766 11.7188H14.6953C15.0978 11.7189 15.4876 11.5777 15.7967 11.3198C16.1058 11.062 16.3146 10.7038 16.3867 10.3078L17.3359 5.08359C17.3482 5.01618 17.3455 4.94689 17.3281 4.88061C17.3107 4.81434 17.279 4.75269 17.2352 4.7ZM7.65625 15.9375C7.65625 16.1538 7.5921 16.3653 7.47192 16.5452C7.35174 16.725 7.18092 16.8652 6.98106 16.948C6.7812 17.0308 6.56129 17.0524 6.34912 17.0102C6.13695 16.968 5.94207 16.8639 5.7891 16.7109C5.63614 16.5579 5.53197 16.363 5.48977 16.1509C5.44756 15.9387 5.46922 15.7188 5.55201 15.5189C5.63479 15.3191 5.77498 15.1483 5.95484 15.0281C6.13471 14.9079 6.34618 14.8438 6.5625 14.8438C6.85258 14.8438 7.13078 14.959 7.3359 15.1641C7.54102 15.3692 7.65625 15.6474 7.65625 15.9375ZM15.1562 15.9375C15.1562 16.1538 15.0921 16.3653 14.9719 16.5452C14.8517 16.725 14.6809 16.8652 14.4811 16.948C14.2812 17.0308 14.0613 17.0524 13.8491 17.0102C13.637 16.968 13.4421 16.8639 13.2891 16.7109C13.1361 16.5579 13.032 16.363 12.9898 16.1509C12.9476 15.9387 12.9692 15.7188 13.052 15.5189C13.1348 15.3191 13.275 15.1483 13.4548 15.0281C13.6347 14.9079 13.8462 14.8438 14.0625 14.8438C14.3526 14.8438 14.6308 14.959 14.8359 15.1641C15.041 15.3692 15.1562 15.6474 15.1562 15.9375ZM15.4641 10.1398C15.4313 10.3199 15.3364 10.4827 15.1959 10.5999C15.0554 10.7171 14.8783 10.7813 14.6953 10.7812H5.27734L4.31172 5.46875H16.3133L15.4641 10.1398Z" fill="#114E8C"/>
</svg>
