<svg width="20" height="20" viewBox="0 0 20 20" fill="none" xmlns="http://www.w3.org/2000/svg">
<path d="M8.79689 12.3774C9.66735 11.884 10.35 11.1164 10.7384 10.1943C11.1268 9.27215 11.1991 8.24742 10.944 7.27993C10.6889 6.31243 10.1207 5.45659 9.3281 4.84591C8.53551 4.23523 7.56308 3.90405 6.56251 3.90405C5.56195 3.90405 4.58952 4.23523 3.79693 4.84591C3.00434 5.45659 2.43616 6.31243 2.18104 7.27993C1.92591 8.24742 1.99819 9.27215 2.38659 10.1943C2.77499 11.1164 3.45767 11.884 4.32814 12.3774C2.71483 12.8917 1.32934 13.9487 0.407043 15.3688C0.339081 15.4729 0.315264 15.5997 0.34083 15.7214C0.366397 15.8431 0.439253 15.9496 0.543371 16.0176C0.647489 16.0856 0.774341 16.1094 0.89602 16.0838C1.0177 16.0582 1.12424 15.9854 1.1922 15.8813C1.77392 14.9868 2.56983 14.2519 3.50767 13.7431C4.4455 13.2343 5.49556 12.9678 6.56251 12.9678C7.62947 12.9678 8.67952 13.2343 9.61736 13.7431C10.5552 14.2519 11.3511 14.9868 11.9328 15.8813C12.0052 15.974 12.1098 16.0362 12.2259 16.0554C12.342 16.0746 12.4611 16.0494 12.5595 15.9848C12.6579 15.9203 12.7284 15.8211 12.757 15.707C12.7857 15.5928 12.7703 15.4721 12.7141 15.3688C11.7928 13.9494 10.4087 12.8925 8.79689 12.3774ZM2.96876 8.43751C2.96876 7.72674 3.17953 7.03192 3.57442 6.44093C3.9693 5.84994 4.53057 5.38932 5.18724 5.11732C5.84391 4.84532 6.5665 4.77415 7.26362 4.91282C7.96074 5.05148 8.60108 5.39375 9.10368 5.89635C9.60627 6.39894 9.94854 7.03929 10.0872 7.73641C10.2259 8.43353 10.1547 9.15611 9.8827 9.81278C9.6107 10.4695 9.15008 11.0307 8.55909 11.4256C7.9681 11.8205 7.27329 12.0313 6.56251 12.0313C5.60977 12.03 4.69641 11.651 4.02272 10.9773C3.34903 10.3036 2.97 9.39025 2.96876 8.43751ZM19.4531 16.0156C19.3491 16.0835 19.2224 16.1073 19.1008 16.0819C18.9792 16.0564 18.8727 15.9837 18.8047 15.8797C18.224 14.9852 17.4287 14.2502 16.4912 13.7418C15.5538 13.2333 14.504 12.9676 13.4375 12.9688C13.3132 12.9688 13.194 12.9194 13.1061 12.8315C13.0181 12.7436 12.9688 12.6243 12.9688 12.5C12.9688 12.3757 13.0181 12.2565 13.1061 12.1686C13.194 12.0806 13.3132 12.0313 13.4375 12.0313C13.9667 12.0307 14.4893 11.9133 14.9679 11.6874C15.4464 11.4616 15.8692 11.1328 16.206 10.7245C16.5428 10.3163 16.7852 9.83878 16.9161 9.326C17.0469 8.81322 17.0629 8.27788 16.9629 7.75821C16.8628 7.23854 16.6493 6.74738 16.3374 6.31982C16.0256 5.89226 15.6231 5.53884 15.1589 5.28482C14.6946 5.03081 14.18 4.88246 13.6518 4.85038C13.1235 4.81829 12.5947 4.90327 12.1031 5.09923C12.0459 5.12267 11.9846 5.13455 11.9227 5.13418C11.8608 5.13381 11.7997 5.12119 11.7427 5.09706C11.6857 5.07293 11.6341 5.03776 11.5908 4.99359C11.5475 4.94941 11.5133 4.8971 11.4903 4.83966C11.4674 4.78223 11.456 4.72081 11.4568 4.65895C11.4577 4.59709 11.4708 4.53601 11.4953 4.47924C11.5199 4.42246 11.5555 4.37111 11.6 4.32815C11.6445 4.28519 11.6971 4.25146 11.7547 4.22892C12.821 3.80382 14.0088 3.79924 15.0783 4.21611C16.1479 4.63297 17.0193 5.44021 17.5166 6.47476C18.014 7.50931 18.1001 8.69406 17.7577 9.78968C17.4153 10.8853 16.6698 11.8101 15.6719 12.3774C17.2852 12.8917 18.6707 13.9487 19.593 15.3688C19.66 15.4731 19.6829 15.5998 19.6567 15.7211C19.6305 15.8423 19.5573 15.9483 19.4531 16.0156Z" fill="#114E8C"/>
</svg>
